<?xml version="1.0" encoding="UTF-8" standalone="no"?>
<!-- Created with Inkscape (http://www.inkscape.org/) -->

<svg
   width="51.131477mm"
   height="48.69664mm"
   viewBox="0 0 51.131477 48.69664"
   version="1.1"
   id="svg1"
   xml:space="preserve"
   xmlns="http://www.w3.org/2000/svg"
   xmlns:svg="http://www.w3.org/2000/svg"><defs
     id="defs1" /><g
     id="layer1"
     transform="translate(-45.109424,-152.19139)"><path
       style="fill:#d1ab86;fill-opacity:1"
       d="m 49.979083,199.67062 v -1.21742 h -1.21741 -1.21742 v -1.21741 -1.21742 h -1.21741 -1.21742 v -19.47866 -19.47866 h 1.21742 1.21741 v -1.21742 -1.21741 h 1.21742 1.21741 v -1.21742 -1.21741 h 14.609 14.60899 v 1.21741 1.21742 h 1.21742 1.21742 v 1.21741 1.21742 h 1.21741 1.21742 v 7.3045 7.30449 h -3.65225 -3.65225 v -6.08708 -6.08708 h -12.17416 -12.17416 v 17.04383 17.04383 h 12.17416 12.17416 v -6.08708 -6.08709 h 3.65225 3.65225 v 7.3045 7.3045 h -1.21742 -1.21741 v 1.21742 1.21741 h -1.21742 -1.21742 v 1.21742 1.21741 h -14.60899 -14.609 z m 36.52249,-17.04383 v -3.65225 h -8.52191 -8.52192 v -2.43483 -2.43483 h 8.52192 8.52191 v -3.65225 -3.65225 h 1.21742 1.21741 v 1.21742 1.21741 h 1.21742 1.21742 v 1.21742 1.21741 h 1.21741 1.21742 v 1.21742 1.21742 h 1.21741 1.21742 v 2.43483 2.43483 h -1.21742 -1.21741 v 1.21742 1.21741 h -1.21742 -1.21741 v 1.21742 1.21742 h -1.21742 -1.21742 v 1.21741 1.21742 h -1.21741 -1.21742 z"
       id="path2" /></g></svg>
