<?xml version="1.0" encoding="UTF-8" standalone="no"?>
<!-- Created with Inkscape (http://www.inkscape.org/) -->

<svg
   width="42.413586mm"
   height="57.330933mm"
   viewBox="0 0 42.413586 57.330933"
   version="1.1"
   id="svg1"
   xml:space="preserve"
   xmlns="http://www.w3.org/2000/svg"
   xmlns:svg="http://www.w3.org/2000/svg"><defs
     id="defs1" /><g
     id="layer1"
     transform="translate(-99.2293,-145.54531)"><g
       style="fill:#d1ab86;stroke:#d1ab86;stroke-width:0.216191;stroke-dasharray:none"
       id="g3"
       transform="matrix(2.98347,0,0,2.98347,87.617921,139.90087)"><g
         id="SVGRepo_bgCarrier-9"
         stroke-width="0"
         style="stroke-width:0.216191;stroke-dasharray:none" /><g
         id="SVGRepo_tracerCarrier-3"
         stroke-linecap="round"
         stroke-linejoin="round"
         style="stroke-width:0.216191;stroke-dasharray:none" /><g
         id="SVGRepo_iconCarrier-6"
         style="stroke-width:0.216191;stroke-dasharray:none"><path
           d="m 10,13 h 2 v 1 h 1 v 2 h -1 v 1 H 10 V 16 H 9 v -2 h 1 V 13 M 14,2 v 1 h 1 v 1 h 1 v 5 h 1 v 1 h 1 v 10 h -1 v 1 H 5 V 20 H 4 V 10 H 5 V 9 h 9 V 5 H 13 V 4 H 9 V 5 H 8 V 7 H 6 V 4 H 7 V 3 H 8 V 2 h 6 m 2,9 H 6 v 8 h 10 z"
           id="path1-0"
           style="stroke-width:0.216191;stroke-dasharray:none" /></g></g></g></svg>
