<?xml version="1.0" standalone="no"?>
<!DOCTYPE svg PUBLIC "-//W3C//DTD SVG 20010904//EN"
 "http://www.w3.org/TR/2001/REC-SVG-20010904/DTD/svg10.dtd">
<svg version="1.0" xmlns="http://www.w3.org/2000/svg"
 width="238.000000pt" height="430.000000pt" viewBox="0 0 238.000000 430.000000"
 preserveAspectRatio="xMidYMid meet">

<g transform="translate(0.000000,430.000000) scale(0.100000,-0.100000)"
fill="#dba380" stroke="#9F694C" stroke-width="13">
<path d="M2206 4265 c-75 -38 -118 -72 -147 -120 l-19 -30 0 43 c0 54 -14 82
-43 82 -36 0 -217 -96 -287 -153 -207 -169 -330 -443 -330 -738 l0 -86 -40
-12 c-64 -19 -233 -107 -301 -158 -371 -272 -608 -761 -683 -1408 -16 -140
-28 -179 -141 -445 -135 -320 -215 -591 -215 -724 0 -72 25 -181 56 -245 59
-119 206 -224 359 -256 244 -51 471 44 594 248 74 124 118 293 92 355 -20 47
-79 63 -103 28 -5 -6 -20 -49 -34 -95 -56 -182 -128 -288 -226 -332 -46 -21
-67 -24 -163 -23 -138 1 -207 24 -276 93 -116 115 -103 293 41 598 87 183 256
453 377 601 l34 42 725 0 724 0 0 41 c0 48 -33 85 -113 125 -33 17 -53 35 -62
57 -18 43 -35 231 -35 385 l0 123 74 148 c186 377 222 673 112 924 -6 13 -4
17 10 17 36 0 119 47 157 88 31 36 37 49 37 88 0 51 -10 74 -51 122 -34 38
-37 82 -14 173 14 54 14 62 -1 91 -9 18 -36 53 -60 78 l-44 46 51 98 c51 101
62 158 29 164 -8 1 -46 -14 -84 -33z m-466 -2502 c0 -2 -45 -3 -100 -3 l-101
0 35 30 c18 17 41 47 49 68 12 31 33 142 38 205 1 8 71 -261 79 -300z"/>
</g>
</svg>
