<?xml version="1.0" encoding="UTF-8" standalone="no"?>
<!-- Created with Inkscape (http://www.inkscape.org/) -->

<svg
   width="210mm"
   height="297mm"
   viewBox="0 0 210 297"
   version="1.1"
   id="svg1"
   xml:space="preserve"
   inkscape:export-filename="hilal.png"
   inkscape:export-xdpi="96"
   inkscape:export-ydpi="96"
   inkscape:version="1.4.2 (ebf0e940d0, 2025-05-08)"
   sodipodi:docname="hilal.svg"
   xmlns:inkscape="http://www.inkscape.org/namespaces/inkscape"
   xmlns:sodipodi="http://sodipodi.sourceforge.net/DTD/sodipodi-0.dtd"
   xmlns="http://www.w3.org/2000/svg"
   xmlns:svg="http://www.w3.org/2000/svg"><sodipodi:namedview
     id="namedview1"
     pagecolor="#ffffff"
     bordercolor="#000000"
     borderopacity="0.25"
     inkscape:showpageshadow="2"
     inkscape:pageopacity="0.0"
     inkscape:pagecheckerboard="0"
     inkscape:deskcolor="#d1d1d1"
     inkscape:document-units="mm"
     inkscape:zoom="0.57578373"
     inkscape:cx="396.85039"
     inkscape:cy="560.97452"
     inkscape:window-width="1731"
     inkscape:window-height="958"
     inkscape:window-x="0"
     inkscape:window-y="0"
     inkscape:window-maximized="1"
     inkscape:current-layer="layer1" /><defs
     id="defs1" /><g
     inkscape:label="Layer 1"
     inkscape:groupmode="layer"
     id="layer1"><path
       style="fill:#f2bc88;fill-opacity:1;stroke-width:0.931453"
       d="m 71.932487,227.17831 c -2.80495,-0.45256 -7.318614,-1.84835 -10.872211,-3.36207 -7.94551,-3.38453 -12.608737,-8.15212 -13.813861,-14.12301 -0.381961,-1.89246 -0.433861,-3.92171 -0.150774,-5.89548 0.06529,-0.45543 0.125253,-0.88238 0.133179,-0.94876 0.0084,-0.0667 -0.409075,-0.48733 -0.931937,-0.93999 -3.151591,-2.72839 -6.440487,-5.96167 -9.232313,-9.07617 -11.17158,-12.46279 -19.105913,-27.4356 -23.171417,-43.7266 -2.586683,-10.36518 -3.538815,-21.38211 -2.763762,-31.97896 1.550656,-21.201057 9.543167,-41.233817 23.008301,-57.668943 3.773233,-4.605491 8.477585,-9.383191 13.009542,-13.212398 3.403623,-2.875828 8.143994,-6.377791 10.853275,-8.017888 0.135237,-0.08187 0.201585,-0.191513 -0.90474,1.495148 -7.352137,11.208724 -12.54836,24.278852 -14.971135,37.6571 -2.434773,13.444426 -2.135944,27.461361 0.867536,40.693341 3.639551,16.0342 10.934311,30.77561 21.437666,43.32172 6.186331,7.38948 13.633262,14.07907 21.535152,19.3451 l 0.946357,0.63067 1.73499,0.0933 c 2.934282,0.15775 6.244634,0.60555 9.148105,1.2375 0.693997,0.15106 1.300858,0.27496 1.348576,0.27534 0.05337,4.2e-4 -0.0449,-0.53743 -0.255814,-1.39913 -2.029599,-8.29307 -2.802976,-17.29666 -2.152458,-25.05873 1.171023,-13.97296 6.330906,-26.52386 15.124836,-36.78961 0.50161,-0.58556 1.88983,-2.04058 3.08494,-3.23338 1.91715,-1.91345 2.22177,-2.25198 2.58774,-2.87582 0.82132,-1.40004 1.67679,-4.71048 1.57715,-6.10313 -0.0478,-0.66734 -0.22706,-1.06237 -0.87277,-1.92279 -0.63727,-0.84919 -1.05304,-1.59625 -1.45995,-2.62328 -1.13954,-2.87623 -1.66807,-7.043433 -1.34845,-10.631962 0.10273,-1.1534 0.0243,-1.580862 -0.48692,-2.653011 -0.52262,-1.096144 -1.7273,-3.020582 -2.8569,-4.563855 -0.89742,-1.226079 -1.64253,-2.473839 -1.96254,-3.286471 -0.20148,-0.51165 -0.24967,-0.750159 -0.25492,-1.261809 -0.006,-0.546271 0.019,-0.66662 0.18342,-0.89715 0.10443,-0.146436 0.35285,-0.341622 0.55204,-0.433747 0.50006,-0.231289 1.91623,-0.22154 3.04349,0.02096 1.48638,0.319743 4.80676,1.376113 7.10268,2.259691 l 1.10909,0.426831 1.2568,-0.580058 c 3.58735,-1.655685 6.92051,-2.508724 10.7072,-2.740245 2.09401,-0.128028 4.53378,0.04231 6.41295,0.447732 0.24551,0.05297 0.2557,0.04252 0.85649,-0.878928 1.49718,-2.296201 2.81289,-3.587631 4.00807,-3.934096 0.26822,-0.07775 0.56666,-0.113392 0.71557,-0.08546 0.42423,0.07958 0.96787,0.484556 1.35452,1.009008 1.40816,1.910005 2.39566,5.545056 2.99485,11.024173 0.10673,0.97593 0.26414,2.201062 0.34981,2.722509 0.47166,2.870822 0.56515,5.391493 0.35529,9.580128 -0.18467,3.68611 -0.13909,5.31606 0.22932,8.20175 1.11744,8.75247 1.40195,11.23513 1.62225,14.15593 0.54469,7.22127 0.34609,13.73752 -0.62407,20.47725 -0.37546,2.60833 -0.43703,3.42999 -0.43635,5.82357 8.1e-4,2.89452 0.11366,4.06235 0.98309,10.17333 0.80013,5.62386 0.91358,7.08067 0.84139,10.80423 -0.0568,2.92955 -0.1961,4.46116 -0.64798,7.12356 -0.74376,4.38218 -2.28117,8.90458 -4.07675,11.99202 -0.2885,0.49605 -0.31227,0.57929 -0.2733,0.95691 0.0617,0.59785 0.40061,1.26243 0.78625,1.54178 0.35342,0.25601 0.59488,0.33426 1.54109,0.49946 1.47916,0.25822 2.30087,0.98173 2.82425,2.48673 0.3469,0.99751 0.3776,2.46959 0.0708,3.39341 -0.15454,0.46533 -0.55739,1.04369 -0.91527,1.31406 l -0.2685,0.20286 0.6309,-0.0538 c 1.57396,-0.13415 5.08875,-0.60782 7.33426,-0.98838 12.84077,-2.17624 25.65857,-7.03277 36.70204,-13.90603 0.5374,-0.33445 0.98762,-0.59756 1.00052,-0.58468 0.0339,0.0339 -1.83394,2.66401 -2.84275,4.00286 -9.52405,12.63974 -21.76463,22.88083 -35.76674,29.92423 -12.75932,6.41827 -25.99351,9.96486 -40.53559,10.86302 -2.12164,0.13104 -9.08236,0.13081 -11.19856,-3.6e-4 -9.570185,-0.59322 -18.047103,-2.21143 -26.695124,-5.09598 -7.970166,-2.65846 -15.084643,-6.00547 -22.072591,-10.38407 -0.872483,-0.54668 -1.598886,-0.98364 -1.614237,-0.97102 -0.03903,0.0321 0.803714,1.31592 1.238153,1.88614 0.556748,0.73075 2.173202,2.35281 3.048367,3.05893 2.225931,1.79597 4.273964,2.8418 7.288705,3.72196 0.805801,0.23526 1.83772,0.56655 2.293154,0.73621 2.643772,0.98482 4.464539,2.2481 5.097173,3.53649 0.201092,0.40951 0.225952,0.54323 0.224909,1.20961 -9.32e-4,0.66622 -0.02562,0.79585 -0.221807,1.17035 -0.299816,0.57227 -0.807887,1.10777 -1.235992,1.30269 -0.463016,0.21083 -2.213338,0.25779 -3.267696,0.0876 z"
       id="path1" /></g></svg>
