<?xml version="1.0" encoding="UTF-8" standalone="no"?>
<!-- Created with Inkscape (http://www.inkscape.org/) -->

<svg
   width="121.98648mm"
   height="113.08065mm"
   viewBox="0 0 121.98648 113.08065"
   version="1.1"
   id="svg1"
   xml:space="preserve"
   xmlns="http://www.w3.org/2000/svg"
   xmlns:svg="http://www.w3.org/2000/svg"><defs
     id="defs1" /><g
     id="layer1"
     transform="translate(-288.67585,-260.49315)"><path
       d="m 303.56315,371.7948 c 2.56222,-0.16484 5.33082,-0.0619 6.35,-2.91042 h 0.26458 c 0.18627,4.26297 5.06307,5.28717 7.4766,1.80605 1.32239,-1.90738 -0.50641,-5.03661 -0.85064,-7.05274 -0.73131,-4.28466 -0.54557,-7.75546 1.4478,-11.68664 1.3806,-2.72309 3.60416,-4.97523 5.87005,-6.95457 0.68474,-0.59849 1.29566,-1.63434 2.20609,-1.89786 1.08744,-0.31485 2.85618,0.49477 3.95844,0.7022 2.00527,0.3773 4.31853,0.36116 6.35,0.16775 4.83949,-0.46038 9.73111,-0.3138 14.55208,-1.04881 4.42172,-0.67416 8.11953,-2.08121 12.7,-2.08121 -0.37042,5.24298 1.68354,9.73693 2.09206,14.81667 0.35322,4.39684 -0.82973,9.27047 0.64505,13.49375 1.21047,3.4663 6.77783,6.33941 9.79012,2.81966 1.86134,-2.17488 -1.27979,-3.0435 -2.30029,-4.42172 -0.85937,-1.16046 -0.86069,-2.91068 -0.7247,-4.29815 0.3302,-3.37 1.09379,-8.69606 2.92524,-11.56229 1.20306,-1.88278 3.35148,-2.92735 4.50585,-4.7625 1.93437,2.15661 5.46735,6.91329 6.04626,9.76974 0.93927,4.63629 -3.98542,13.81045 4.00791,15.04447 5.66235,0.87418 3.21204,-4.5167 2.88025,-7.3279 -0.18468,-1.56369 0.26115,-3.49806 0.50165,-5.0509 0.3175,-2.05025 0.75671,-3.74385 0.25585,-5.8248 -0.90672,-3.76767 -3.43376,-6.85774 -3.8563,-10.84395 -0.49556,-4.67492 3.17871,-11.16383 5.65018,-15.04209 0.85143,-1.33615 3.00434,-0.76385 4.35795,-0.85672 3.71475,-0.25426 9.06277,-0.56806 9.94675,-5.26785 0.40137,-2.1336 -1.70418,-3.55574 -2.50164,-5.29167 -0.86307,-1.87854 -0.41169,-4.18015 -1.29751,-6.08515 -0.85593,-1.84177 -2.69664,-2.99747 -3.65602,-4.76277 -0.76041,-1.39964 -0.63949,-2.96016 -0.63949,-4.49791 -2.04418,0.8837 -2.98583,3.0554 -4.7625,4.32937 -2.05158,1.47082 -4.58127,1.69492 -6.87917,2.56726 -1.72191,0.65352 -3.23083,1.89865 -5.02814,2.3069 -5.33982,1.21364 -10.55291,-0.18548 -15.87394,-0.69189 -4.46458,-0.42492 -9.02203,0.0712 -13.49375,-0.35454 -5.47767,-0.52123 -10.9056,-2.08465 -16.40417,-2.32595 -5.6425,-0.24739 -11.27443,-0.2749 -16.93333,-0.2749 -1.96586,0 -4.94163,0.84137 -6.61459,-0.33841 -6.05393,-4.26852 -11.01751,-9.23475 -13.52973,-16.33034 -2.15583,-6.08965 -2.13889,-12.48516 -4.72652,-18.52084 -1.32291,-3.08504 -3.00355,-6.52356 -5.36786,-8.94979 -0.76068,-0.78052 -2.12672,-1.99602 -3.32767,-1.7862 -2.53206,0.44211 1.02923,4.39023 1.53855,5.17974 4.21561,6.53336 4.60614,13.73452 5.94651,21.16667 0.69348,3.8444 1.44939,7.82717 3.14934,11.37708 1.68804,3.52531 4.10792,6.56802 5.44618,10.31875 1.03452,2.90089 0.94139,5.53138 1.4695,8.46667 0.2958,1.64491 1.29646,3.35968 1.32186,5.02708 0.0402,2.60297 -1.88992,6.08992 -2.4474,8.73125 -0.97684,4.6273 -1.22026,9.38768 -2.20424,14.02292 -0.89271,4.20423 -2.49238,8.12271 -2.92338,12.43542 -0.50695,5.06915 -1.17661,10.65688 2.69054,14.55208"
       style="fill:#ae8b64;stroke:none;stroke-width:0.264583"
       id="path3-76" /></g></svg>
