<?xml version="1.0" encoding="UTF-8" standalone="no"?>
<!-- Created with Inkscape (http://www.inkscape.org/) -->

<svg
   width="120.76056mm"
   height="113.52072mm"
   viewBox="0 0 120.76056 113.52072"
   version="1.1"
   id="svg1"
   xml:space="preserve"
   xmlns="http://www.w3.org/2000/svg"
   xmlns:svg="http://www.w3.org/2000/svg"><defs
     id="defs1" /><g
     id="layer1"
     transform="translate(-304.2234,-371.03113)"><path
       d="m 324.76275,460.34945 c -0.68156,6.19945 -0.10715,14.98547 2.69452,20.6375 1.43298,2.89084 6.87282,5.64489 8.68019,1.31895 1.51315,-3.62188 -2.56249,-4.11242 -3.32,-6.87917 -1.49833,-5.47264 -0.86995,-11.96498 0.44636,-17.45853 0.45217,-1.88595 1.23666,-4.71037 2.86543,-5.94492 1.00304,-0.76015 2.96228,0.73448 3.97934,1.09114 3.49991,1.22767 6.88737,1.56554 10.58333,1.40388 5.14085,-0.22516 10.85533,-0.0378 15.875,-1.22105 3.49647,-0.82418 8.53334,-3.16574 12.14199,-1.67058 1.54782,0.64135 1.91188,3.88302 2.67335,5.2832 2.63658,4.85008 6.96199,8.67251 9.15512,13.75833 1.56712,3.63352 -1.96162,7.01516 0.53789,10.82331 1.31789,2.00766 8.24151,4.68868 7.77082,0.28919 2.27832,-0.0534 7.1239,-2.00184 6.23517,-4.99745 -0.43683,-1.47293 -2.21007,-1.08823 -3.3237,-1.51209 -1.22264,-0.46514 -1.96426,-1.837 -2.35426,-3.01546 -0.55933,-1.68963 0.33814,-3.31602 0.33337,-5.02708 -0.0116,-4.10766 -1.79705,-9.7663 0.52123,-13.59535 1.32318,-2.18599 4.23334,-3.06679 5.64939,-5.45465 1.8923,-3.19141 2.31034,-7.50041 4.97681,-10.23461 1.01547,-1.04087 3.0517,-0.56621 4.36615,-0.62363 3.70047,-0.16219 8.54684,-0.61198 9.64089,-5.01676 0.59452,-2.39342 -1.8333,-3.82376 -2.57016,-5.82083 -0.65352,-1.7706 -0.38709,-3.78116 -1.11257,-5.55625 -0.82365,-2.01481 -2.75088,-3.1414 -3.73486,-5.02735 -0.75565,-1.44807 -0.45509,-2.99138 -0.90038,-4.49765 -1.89177,1.20835 -2.90248,3.28321 -4.7625,4.5376 -2.05872,1.388 -4.61989,1.58089 -6.87917,2.46433 -1.45812,0.56991 -2.7559,1.67666 -4.24365,2.11508 -5.48587,1.61554 -10.92597,-0.0847 -16.39385,-0.60537 -4.64502,-0.44238 -9.36439,0.0892 -14.02291,-0.35454 -5.58403,-0.53181 -11.06805,-1.92908 -16.66875,-2.31246 -5.54117,-0.37968 -11.10774,-0.31512 -16.66875,-0.28813 -1.82854,0.009 -4.79954,1.00145 -6.39498,-0.13758 -6.26613,-4.47437 -11.2866,-10.69658 -13.52233,-18.11893 -1.71979,-5.70892 -1.72429,-11.53637 -3.9489,-17.19792 -1.22132,-3.10806 -2.59398,-6.3246 -4.97734,-8.72993 -0.73343,-0.74057 -1.9312,-2.06983 -3.13188,-1.66872 -1.41393,0.47201 -0.43921,2.21588 0.0529,2.99032 2.19393,3.45175 4.01796,6.8027 4.87945,10.84791 1.4851,6.97336 1.33747,14.1232 3.87217,20.90209 1.91612,5.12445 5.09323,9.53875 6.79715,14.81666 0.74824,2.31828 0.47387,4.54581 0.88635,6.87917 0.31592,1.78805 1.45257,3.73406 1.33192,5.55625 -0.0953,1.43801 -0.85672,2.75246 -0.91493,4.23333 -0.14208,3.61289 0.90064,6.8834 -0.87313,10.31875 -1.94019,3.75761 -5.84835,4.44553 -8.29363,7.41971 -2.31775,2.81914 -1.45256,8.28199 -1.11786,11.63029 0.23521,2.35162 0.62309,4.77467 0.4609,7.14375 -0.11112,1.61978 -0.67442,3.71184 -0.0815,5.29035 0.93054,2.47755 4.38362,2.01295 6.17882,0.91889 2.21006,-1.34725 1.12554,-4.36747 1.07394,-6.47382 -0.11377,-4.63577 0.51224,-11.27787 5.55228,-13.22917"
       style="fill:#af8b64;stroke:none;stroke-width:0.264583"
       id="path3-0" /></g></svg>
