<?xml version="1.0" encoding="UTF-8" standalone="no"?>
<!-- Created with Inkscape (http://www.inkscape.org/) -->

<svg
   width="122.8196mm"
   height="111.6967mm"
   viewBox="0 0 122.8196 111.6967"
   version="1.1"
   id="svg1"
   xml:space="preserve"
   xmlns="http://www.w3.org/2000/svg"
   xmlns:svg="http://www.w3.org/2000/svg"><defs
     id="defs1" /><g
     id="layer1"
     transform="translate(-438.78663,-337.21125)"><path
       d="m 468.07239,417.2618 c -0.41143,3.25332 -2.67414,6.14654 -2.95275,9.25645 -0.20849,2.3286 1.09458,5.03925 1.91823,7.14772 0.54901,1.40599 1.05119,3.37714 2.35744,4.23333 l 1.05833,2.64584 c -0.36671,2.47888 1.13982,8.29759 4.23333,8.36215 1.89865,0.0397 3.44541,-1.68434 4.7625,-2.8059 -0.2069,-3.17183 -2.01348,-5.89704 -2.8104,-8.99584 -1.24778,-4.85299 -0.22278,-11.36412 2.61779,-15.60142 1.26391,-1.88568 5.76447,-0.72125 7.86553,-0.81306 5.00777,-0.21934 10.4222,-0.0921 15.3498,-1.05199 3.32714,-0.64796 6.85192,-2.60112 10.31478,-1.84811 -1.08902,4.19841 -1.19247,8.53784 -2.43469,12.7 -1.17105,3.92298 -3.59516,7.9674 -3.3745,12.17083 0.17145,3.26681 5.91952,7.62424 8.81142,4.6109 1.79917,-1.87458 -1.53167,-3.60839 -1.27847,-5.66923 0.42175,-3.43535 3.03054,-6.64422 4.78896,-9.525 1.13903,-1.86611 2.63128,-3.68274 4.59978,-4.71355 3.6539,-1.91321 7.50173,-1.93569 7.9375,-6.92812 l 2.90645,0.0524 3.73089,3.90975 8.89767,9.26703 4.30874,5.55625 c 0.60854,4.66275 11.06911,4.20052 9.67476,-1.03452 -0.59426,-2.2315 -3.75603,-3.4507 -5.16626,-5.16308 -1.89494,-2.30135 -3.07763,-5.11122 -4.74662,-7.56073 -3.32158,-4.87442 -7.67768,-9.00192 -6.91145,-15.42124 0.18997,-1.592 2.18228,-5.7658 3.72454,-6.37964 4.4786,-1.78223 9.57554,1.41843 12.74763,-3.86477 1.83594,-3.05752 -1.01627,-4.51088 -1.98729,-7.14269 -0.65352,-1.77059 -0.38709,-3.78116 -1.11257,-5.55625 -0.821,-2.00871 -2.72177,-3.17103 -3.73116,-5.02708 -0.77972,-1.43404 -0.46011,-2.99561 -0.90408,-4.49792 -1.93675,1.14327 -2.89639,3.27925 -4.7625,4.53761 -2.05872,1.388 -4.61989,1.58088 -6.87916,2.46433 -1.54305,0.60325 -2.90883,1.76768 -4.50189,2.19207 -5.44036,1.44992 -10.72674,-0.16722 -16.13561,-0.68236 -4.64503,-0.44238 -9.3644,0.0892 -14.02292,-0.35454 -5.5843,-0.53182 -11.06646,-1.92882 -16.66875,-2.31246 -5.36945,-0.36777 -10.75161,-0.2884 -16.13958,-0.2884 -1.89812,0 -4.74398,0.83662 -6.35,-0.34766 -4.3106,-3.17817 -9.18025,-6.50954 -11.85387,-11.294 -4.1566,-7.43876 -3.47953,-16.19462 -7.26175,-23.8125 -1.55972,-3.14167 -3.17659,-6.27698 -5.75522,-8.71988 -0.75406,-0.71437 -2.20345,-2.0656 -3.37873,-1.67613 -2.2053,0.73078 0.95594,4.03331 1.55999,4.83976 4.45293,5.94783 5.60599,13.19344 6.61537,20.37291 0.56092,3.98727 1.279,8.22008 2.95858,11.90625 2.23705,4.90935 5.67266,8.90852 7.0813,14.2875 0.41064,1.56872 0.0974,3.17606 0.32385,4.7625 0.2204,1.54252 1.21047,3.21099 1.13533,4.75853 -0.11033,2.26986 -2.83422,5.27103 -3.74729,7.41231 -1.68381,3.94811 -3.02366,8.03989 -4.90432,11.90625 -2.26298,4.65296 -4.93607,8.6651 -6.11902,13.75833 -0.762,3.28083 -2.68922,9.82186 0.43101,12.47404 2.43178,2.06719 7.27763,-0.20849 8.05921,-2.94904 0.64558,-2.26245 -2.31855,-3.93859 -2.032,-6.61458 0.36777,-3.43721 2.12592,-5.63166 4.22169,-8.2259 3.60495,-4.4614 6.92017,-8.03645 12.93045,-8.70744"
       style="fill:#af8b64;stroke:none;stroke-width:0.264583"
       id="path3-02" /></g></svg>
