<?xml version="1.0" encoding="UTF-8" standalone="no"?>
<!-- Created with Inkscape (http://www.inkscape.org/) -->

<svg
   width="121.45076mm"
   height="112.06913mm"
   viewBox="0 0 121.45076 112.06913"
   version="1.1"
   id="svg1"
   xml:space="preserve"
   xmlns="http://www.w3.org/2000/svg"
   xmlns:svg="http://www.w3.org/2000/svg"><defs
     id="defs1" /><g
     id="layer1"
     transform="translate(-380.34027,-331.80835)"><path
       d="m 484.91611,434.66571 -0.79375,-0.26458 c 0.10954,-1.88622 -1.25651,-3.79307 -1.86135,-5.55625 -1.48351,-4.32435 -3.79968,-11.62209 -2.31245,-16.13959 0.52863,-1.60602 2.20292,-2.75405 3.03291,-4.2373 1.57904,-2.82205 2.17964,-8.50556 5.16599,-10.26742 1.09723,-0.64744 2.95037,-0.31194 4.17698,-0.31194 3.64993,0 8.0907,-0.62257 9.34191,-4.76356 0.7075,-2.34209 -1.79388,-3.88303 -2.53286,-5.81978 -0.6686,-1.75127 -0.34819,-3.79253 -1.02632,-5.55625 -0.7829,-2.03676 -2.80458,-3.15965 -3.82031,-5.02708 -0.77973,-1.43404 -0.46011,-2.99561 -0.90409,-4.49792 -1.95394,1.03505 -2.94348,3.18294 -4.76276,4.43945 -2.08492,1.44012 -4.56406,1.6383 -6.8789,2.50031 -1.55496,0.57917 -2.89296,1.66529 -4.49792,2.08174 -5.42263,1.40758 -10.48464,-0.15981 -15.875,-0.53102 -4.38811,-0.30242 -8.85772,0.0828 -13.22916,-0.33337 -6.47251,-0.61595 -12.84817,-1.94046 -19.31459,-2.55588 -5.0419,-0.47995 -10.03194,-0.045 -15.08125,-0.045 -1.58141,0 -4.09601,0.6014 -5.55625,0.10107 -1.94548,-0.66648 -4.22566,-3.16309 -5.79702,-4.51035 -9.82504,-8.42301 -8.6151,-20.60575 -13.04131,-31.57405 -1.15094,-2.85194 -2.66197,-5.6007 -4.68842,-7.92692 -0.78184,-0.89773 -1.86875,-2.12301 -3.18452,-2.05925 -2.14498,0.10398 -0.71015,2.51248 -0.0635,3.37159 5.09772,6.77254 5.27923,14.25628 6.76936,22.225 0.78952,4.22248 1.57956,8.5381 3.47927,12.43541 1.58697,3.25517 3.72798,6.04997 4.96597,9.525 1.10728,3.10833 1.06309,5.85073 1.62877,8.99584 0.3138,1.74413 1.49093,3.6785 1.43404,5.44406 -0.081,2.52386 -1.46605,5.22394 -1.77271,7.7851 -0.50059,4.18359 0.40746,8.87016 -0.69162,12.96062 -0.508,1.89044 -2.74293,2.67837 -3.45598,4.50215 -1.38007,3.52901 -0.55298,7.88511 -0.36936,11.52922 0.12488,2.47702 0.0378,5.06756 -0.29422,7.52051 -0.17939,1.3253 -0.42201,3.06546 0.61304,4.12909 1.43404,1.47399 2.95698,0.79798 4.67863,0.82867 0.94906,0.0172 1.70894,0.69612 2.64583,0.79587 2.19102,0.23363 5.13556,-1.77297 5.57239,-3.90154 0.61833,-3.01414 -1.62639,-3.06573 -3.0353,-5.04243 -0.74374,-1.04299 -0.76517,-2.72098 -0.95938,-3.95341 -0.99166,-6.28941 4.9739,-10.36531 9.27021,-13.6271 1.15676,-0.87815 2.83448,-3.30782 4.24365,-3.5388 2.02988,-0.33258 4.84796,1.33059 6.97071,1.48167 5.60732,0.39925 12.06077,-0.0365 17.62522,-0.83318 4.52993,-0.64875 10.73282,-3.9407 15.33155,-2.10846 1.66714,0.66437 2.64266,3.98277 3.68776,5.39644 3.13822,4.24471 9.01965,7.09798 11.25723,11.90652 1.43774,3.08927 0.51355,6.87255 3.37529,9.44853 1.55786,1.40229 2.92258,0.78687 4.58073,1.50574 0.92657,0.40191 1.56765,1.32954 2.51354,1.76795 2.56857,1.19089 7.09639,0.59452 7.27207,-2.93238 0.136,-2.72917 -3.17526,-2.75325 -3.83275,-4.76276"
       style="fill:#af8b64;stroke:none;stroke-width:0.264583"
       id="path3-73" /></g></svg>
