<?xml version="1.0" standalone="no"?>
<!DOCTYPE svg PUBLIC "-//W3C//DTD SVG 20010904//EN"
 "http://www.w3.org/TR/2001/REC-SVG-20010904/DTD/svg10.dtd">
<svg version="1.0" xmlns="http://www.w3.org/2000/svg"
 width="512.000000pt" height="512.000000pt" viewBox="0 0 512.000000 512.000000"
 preserveAspectRatio="xMidYMid meet">

<g transform="translate(0.000000,512.000000) scale(0.100000,-0.100000)"
fill="#000000" stroke="none">
<path d="M609 4815 c-50 -27 -50 -31 -70 -675 -21 -706 -23 -919 -8 -1027 57
-424 321 -775 749 -999 30 -16 55 -36 55 -44 0 -9 -44 -38 -107 -71 -163 -87
-283 -173 -399 -289 -203 -202 -300 -394 -316 -626 -20 -294 115 -560 367
-723 116 -75 57 -72 1096 -69 l929 3 58 27 c117 55 240 184 307 323 97 199
106 421 28 669 -35 111 -147 326 -257 495 -56 85 -101 157 -101 161 0 4 51 29
113 55 222 95 371 191 528 342 213 206 335 429 385 701 11 63 15 150 15 312 0
255 -29 1318 -37 1367 -7 46 -55 83 -108 83 -48 0 -29 11 -436 -247 -538 -340
-581 -366 -609 -365 -14 0 -64 10 -111 21 -144 34 -248 45 -430 44 -181 0
-280 -11 -412 -44 -134 -33 -124 -36 -353 109 -82 53 -289 183 -459 289 -274
171 -313 193 -350 193 -22 -1 -53 -7 -67 -15z m991 -1715 c47 -13 106 -63 130
-111 49 -95 -4 -218 -112 -263 -55 -23 -162 -21 -215 5 -85 41 -135 136 -114
215 34 126 170 193 311 154z m1562 -26 c105 -74 127 -181 55 -276 -110 -147
-369 -110 -416 59 -16 56 -14 74 15 131 43 87 115 124 231 119 61 -2 78 -7
115 -33z m-717 -468 c45 -19 50 -59 15 -126 -39 -75 -120 -130 -193 -130 -90
0 -198 108 -201 201 -1 64 12 69 191 69 112 0 163 -4 188 -14z"/>
<path d="M4165 2465 c-132 -37 -299 -149 -380 -257 -102 -136 -136 -235 -142
-418 -4 -113 -1 -151 17 -235 44 -206 52 -268 47 -365 -7 -147 -63 -265 -176
-375 -32 -31 -46 -55 -62 -110 -27 -89 -75 -184 -133 -260 -44 -59 -44 -60
-20 -63 13 -2 63 6 110 18 362 91 651 359 735 681 30 115 23 299 -16 444 -31
116 -37 227 -16 300 11 37 29 64 70 105 57 57 84 71 217 109 167 49 232 163
170 298 -29 61 -85 106 -159 128 -62 18 -194 18 -262 0z"/>
</g>
</svg>
