<?xml version="1.0" encoding="UTF-8" standalone="no"?>
<!-- Created with Inkscape (http://www.inkscape.org/) -->

<svg
   width="122.02142mm"
   height="112.19308mm"
   viewBox="0 0 122.02142 112.19308"
   version="1.1"
   id="svg1"
   xml:space="preserve"
   xmlns="http://www.w3.org/2000/svg"
   xmlns:svg="http://www.w3.org/2000/svg"><defs
     id="defs1" /><g
     id="layer1"
     transform="translate(-360.87512,-533.88372)"><path
       d="m 437.46417,614.49322 c -0.7755,4.81965 3.8174,10.20895 5.73643,14.2875 1.74836,3.71634 1.32477,6.66274 1.71714,10.58334 0.22278,2.22911 1.11972,4.61565 3.13002,5.81845 1.56687,0.93742 5.07418,0.84137 6.59898,-0.19394 1.34514,-0.91308 1.5449,-2.91836 -0.24924,-3.24326 -0.46831,-0.79958 -1.32424,-1.25969 -1.71635,-2.1217 -1.18507,-2.60456 0.4101,-4.82653 0.29395,-7.4033 -0.18733,-4.15925 -0.75036,-7.29245 0.36407,-11.37709 3.52901,4.45611 6.11372,9.87187 8.87994,14.81667 1.12792,2.01665 1.86082,4.41219 3.58008,6.03567 2.39368,2.25981 9.7192,2.62811 9.0088,-2.3315 -0.3437,-2.40004 -3.56976,-3.35201 -4.78261,-5.29194 -1.66767,-2.66673 -2.6252,-5.59091 -3.83381,-8.4664 -1.56766,-3.72956 -3.83514,-7.98539 -3.27766,-12.17083 0.18626,-1.397 1.11098,-2.46671 1.69703,-3.70417 1.0586,-2.23546 1.62613,-4.46749 2.8956,-6.61458 0.55034,-0.93054 0.89297,-2.31563 1.98676,-2.75087 4.5675,-1.81743 10.62302,1.59781 13.15508,-4.65746 1.06575,-2.63234 -1.59702,-4.141 -2.39395,-6.35 -0.63685,-1.7653 -0.39872,-3.77878 -1.11257,-5.55625 -0.81571,-2.03095 -2.71674,-3.16019 -3.73195,-5.02709 -0.77972,-1.43404 -0.46011,-2.99561 -0.90408,-4.49791 -1.92378,1.13559 -2.91597,3.23109 -4.7625,4.50082 -2.05184,1.41103 -4.59819,1.64677 -6.87916,2.49449 -1.56422,0.58129 -2.90063,1.77192 -4.50189,2.19869 -5.42369,1.44542 -10.73891,-0.16854 -16.13561,-0.68236 -4.55851,-0.43418 -9.18581,0.081 -13.75834,-0.35454 -5.67531,-0.54028 -11.24082,-1.92273 -16.93333,-2.31246 -5.19457,-0.35586 -10.39786,-0.28839 -15.61042,-0.28839 -1.89997,0 -4.55268,0.75909 -6.35,0.10504 -2.10714,-0.7665 -4.35504,-3.243 -6.08912,-4.68525 -10.05813,-8.36559 -8.71008,-20.90102 -13.49004,-31.93229 -1.20518,-2.78157 -2.9009,-5.67532 -5.10276,-7.78113 -0.75988,-0.72682 -1.90447,-1.83039 -3.07049,-1.63195 -2.55799,0.43523 0.81624,4.11427 1.36128,4.91516 4.31827,6.34735 4.80484,13.57471 6.03965,20.90208 0.67416,3.99971 1.46394,8.22854 3.23903,11.90625 1.40599,2.9128 3.41894,5.44195 4.67386,8.46667 1.4904,3.59172 1.59253,6.63972 2.24261,10.31875 0.28046,1.58776 1.12818,3.17817 1.27529,4.7625 0.20823,2.24763 -1.83965,5.15117 -2.29764,7.40833 -1.56898,7.73483 -3.02974,15.22069 -5.42581,22.75417 -1.30598,4.10686 -0.70379,9.57315 0.25929,13.68293 0.38021,1.62295 0.89032,3.66924 2.37331,4.64158 0.89694,0.58791 1.97194,0.25956 2.88872,0.73263 2.43232,1.25545 5.16229,3.06785 7.49724,-0.0415 1.67481,-2.22991 0.12647,-7.48585 0.52996,-10.28435 0.41222,-2.85909 1.65259,-4.3561 3.10065,-6.70057 2.29896,-3.7219 4.61777,-8.28014 8.5381,-10.67382 1.01918,-0.6223 2.30744,0.10609 3.36312,0.32199 2.26457,0.46302 4.5765,0.4363 6.87917,0.37968 5.0972,-0.12488 10.59101,-0.18018 15.61042,-1.12342 4.61301,-0.86678 8.68018,-2.67679 13.49375,-1.78303"
       style="fill:#af8b64;stroke:none;stroke-width:0.264583"
       id="path3" /></g></svg>
