<?xml version="1.0" encoding="UTF-8" standalone="no"?>
<!-- Created with Inkscape (http://www.inkscape.org/) -->

<svg
   width="120.55071mm"
   height="113.38045mm"
   viewBox="0 0 120.55071 113.38045"
   version="1.1"
   id="svg1"
   xml:space="preserve"
   xmlns="http://www.w3.org/2000/svg"
   xmlns:svg="http://www.w3.org/2000/svg"><defs
     id="defs1" /><g
     id="layer1"
     transform="translate(-345.40222,-253.19568)"><path
       d="m 366.03586,341.47301 c 1.31498,7.08316 0.1053,14.83122 3.71845,21.43125 0.77179,1.4097 1.82563,2.95434 3.4253,3.47715 2.77098,0.90541 5.7875,-1.48722 5.74701,-4.2709 -0.0344,-2.3839 -2.85961,-2.88819 -3.78407,-4.76277 -1.33614,-2.70933 -0.86677,-5.67901 -1.69836,-8.4664 l 0.80407,-2.91041 0.51885,-7.67292 2.64583,-4.7625 c 9.21809,3.62717 18.79944,3.35783 28.575,2.0402 4.19365,-0.56515 8.08726,-2.67229 12.43542,-2.25981 4.55454,0.4318 4.65296,6.62173 8.99583,7.36336 0.77629,1.41552 2.52545,1.81689 3.08399,3.43985 0.81915,2.38019 0.75168,4.97284 1.07526,7.41838 0.2331,1.76081 1.20703,3.52664 1.60655,5.28135 0.47784,2.09815 0.74242,4.51088 2.09233,6.26401 1.98252,2.57519 8.36374,4.15184 9.48848,-0.17859 0.67681,-2.60535 -2.11851,-3.39778 -3.28559,-5.08238 -1.47294,-2.12646 -2.21139,-6.18649 -1.6256,-8.67595 h 0.26458 c 0.29739,2.96492 2.44396,7.00008 5.02709,8.54921 2.43416,1.45971 7.19084,0.0413 8.23462,-2.73235 1.02024,-2.71039 -3.23321,-2.35797 -4.36827,-3.72904 -1.55178,-1.87404 -1.36419,-3.94017 -2.08677,-6.06689 -0.48101,-1.41552 -1.63856,-2.49158 -2.48232,-3.69385 -0.70167,-0.99986 -1.50389,-2.63737 -2.73685,-2.91042 -0.14076,-0.95752 -0.85645,-2.4085 -0.33787,-3.32211 0.78819,-1.38879 3.48694,-2.40321 4.62201,-3.82164 2.21271,-2.76489 2.77997,-6.28094 4.58893,-9.26041 0.55271,-0.91044 0.93504,-2.31431 2.00263,-2.75088 4.59581,-1.8788 10.16794,1.61449 13.02306,-4.39287 1.25703,-2.64425 -1.22899,-4.16322 -2.17938,-6.35 -0.82814,-1.905 -0.41592,-4.17063 -1.32529,-6.08542 -1.73064,-3.64411 -4.2545,-4.54237 -4.2545,-8.99583 -2.13069,0.59981 -3.01705,2.98529 -4.77282,4.20555 -2.05529,1.42848 -4.59158,1.64068 -6.86885,2.5318 -1.79123,0.70088 -3.39619,1.97167 -5.29167,2.38574 -5.62345,1.22873 -11.09054,-0.5154 -16.66875,-0.8972 -4.58258,-0.31406 -9.17522,0.10345 -13.75833,-0.33337 -6.89584,-0.65696 -13.73558,-1.89918 -20.6375,-2.55588 -4.39579,-0.4183 -8.84238,0.21961 -13.22917,0.21961 -1.34593,0 -3.54012,0.51382 -4.7625,-0.0138 -1.45124,-0.62654 -2.71806,-2.13916 -3.94493,-3.12023 -5.41364,-4.32938 -9.12945,-11.34719 -10.63678,-18.03268 -1.07474,-4.76779 -1.12104,-9.35567 -2.98662,-14.02292 -1.27582,-3.19193 -2.60403,-6.42302 -4.96729,-8.99186 -0.71543,-0.77788 -2.10396,-2.17011 -3.30941,-1.64836 -1.20068,0.51991 -0.33813,2.28336 0.14023,2.97763 2.32252,3.3737 3.96664,6.8064 4.80166,10.83759 1.48855,7.18688 1.44039,14.43329 4.02987,21.43125 1.31339,3.54886 3.67639,6.5286 5.11175,10.05417 1.54331,3.79121 1.65761,7.2136 2.35929,11.1125 0.29898,1.66343 1.47241,3.60098 1.29408,5.29167 -0.12489,1.18692 -0.80857,2.22038 -0.87657,3.43958 -0.21325,3.82482 0.53102,7.36891 -1.46341,10.84792 -2.21721,3.86715 -6.57331,4.44976 -9.00033,7.69752 -2.041,2.73182 -1.45362,7.87638 -1.45362,11.08789 0,2.26933 0.19579,4.61963 -0.046,6.87917 -0.17568,1.642 -0.97208,3.35571 -0.61912,5.02311 0.62944,2.97127 4.67677,2.69108 6.68073,1.4105 2.0955,-1.33932 1.22608,-6.58998 1.41552,-8.81486 0.43047,-5.05063 2.94455,-9.09452 7.65016,-11.1125"
       style="fill:#af8b65;stroke:none;stroke-width:0.264583"
       id="path3-3" /></g></svg>
