<?xml version="1.0" encoding="UTF-8" standalone="no"?>
<!-- Created with Inkscape (http://www.inkscape.org/) -->

<svg
   width="120.50524mm"
   height="113.51667mm"
   viewBox="0 0 120.50524 113.51667"
   version="1.1"
   id="svg1"
   xml:space="preserve"
   xmlns="http://www.w3.org/2000/svg"
   xmlns:svg="http://www.w3.org/2000/svg"><defs
     id="defs1" /><g
     id="layer1"
     transform="translate(-491.28958,-272.01491)"><path
       d="m 512.37308,359.82078 c 1.3716,7.38849 0.19076,15.32017 3.8137,22.225 1.37292,2.61647 6.99744,5.63034 8.58255,1.31154 1.39224,-3.79359 -3.17288,-5.26468 -3.89784,-8.71987 -1.4904,-7.10248 -0.55351,-15.77446 2.61409,-22.225 8.88126,3.69279 18.3216,3.26946 27.78125,2.0402 3.97827,-0.51699 10.58306,-4.25529 14.51689,-1.99284 1.36975,0.78793 1.81531,3.62162 2.53947,4.97972 1.45785,2.735 3.4925,5.12683 5.58535,7.38452 1.17396,1.26683 2.84533,2.60721 3.0443,4.44633 0.43074,3.97827 -1.94654,8.8683 -0.008,12.51055 1.25545,2.35956 8.52858,5.88275 8.71829,1.0586 l 0.52917,-0.79375 c 2.18043,-10e-4 8.15869,-1.47981 7.25196,-4.73392 -0.43815,-1.57216 -2.38204,-1.12131 -3.54383,-1.63989 -1.20094,-0.53578 -1.84547,-1.72112 -2.31748,-2.8866 -1.92379,-4.75007 -4.54846,-13.46809 -1.19777,-18.19752 1.57162,-2.21826 4.73392,-3.00857 6.35,-5.61498 1.93833,-3.12606 2.25239,-7.83855 5.01914,-10.42379 0.86545,-0.80857 2.69849,-0.3736 3.78381,-0.44794 3.87641,-0.26538 8.8564,-0.31115 10.14889,-5.00327 0.62044,-2.25267 -1.60259,-3.73513 -2.4392,-5.55625 -0.86466,-1.88225 -0.44952,-4.16799 -1.33747,-6.08542 -1.7346,-3.7465 -4.25555,-4.76779 -4.25555,-9.26042 -2.09392,0.81783 -2.97524,3.04774 -4.7625,4.32938 -2.1344,1.53035 -4.767,1.74334 -7.14375,2.67256 -1.63672,0.63976 -3.04509,1.85499 -4.7625,2.25345 -5.36602,1.24434 -10.54339,-0.23601 -15.875,-0.74374 -4.38124,-0.41725 -8.83576,0.0635 -13.22917,-0.35454 -5.75495,-0.54769 -11.43027,-1.9177 -17.19792,-2.31246 -5.54328,-0.37968 -11.10615,-0.2884 -16.66875,-0.2884 -1.99734,0 -5.09402,0.86863 -6.87916,-0.13599 -7.3033,-4.11004 -12.27376,-13.12863 -14.05255,-21.03067 -1.09141,-4.84849 -1.2581,-9.54485 -3.09536,-14.2875 -1.14724,-2.96148 -2.64504,-6.13305 -4.83659,-8.46561 -0.72152,-0.76835 -2.07433,-2.26272 -3.30067,-1.68937 -1.16153,0.54293 -0.23019,2.30558 0.21166,3.01123 2.17355,3.47001 3.86239,6.80508 4.6998,10.84791 1.44885,6.99612 1.41605,14.08933 3.88884,20.90209 1.51633,4.1775 4.21376,7.71948 5.78909,11.90625 1.21443,3.22791 1.24063,6.23067 1.82271,9.525 0.29448,1.66687 1.33826,3.54779 1.34567,5.21626 0.007,1.42663 -1.01282,3.06228 -1.15887,4.57332 -0.36592,3.78116 0.51673,6.91118 -1.69704,10.31875 -2.25187,3.46631 -6.06901,3.99838 -8.53996,6.89345 -2.28997,2.68288 -1.65232,8.05657 -1.4261,11.3628 0.15266,2.22779 0.59531,4.65323 0.41936,6.87917 -0.13388,1.69518 -1.03478,3.60177 -0.55562,5.2914 0.80883,2.853 4.67254,2.68128 6.67729,1.30333 2.19551,-1.50918 0.78846,-4.71355 0.89905,-6.85932 0.30374,-5.90603 1.88066,-11.54906 8.14679,-13.49375"
       style="fill:#af8b65;stroke:none;stroke-width:0.264583"
       id="path3-4" /></g></svg>
