<?xml version="1.0" encoding="UTF-8" standalone="no"?>
<!-- Created with Inkscape (http://www.inkscape.org/) -->

<svg
   width="120.34169mm"
   height="113.2469mm"
   viewBox="0 0 120.34169 113.2469"
   version="1.1"
   id="svg1"
   xml:space="preserve"
   xmlns="http://www.w3.org/2000/svg"
   xmlns:svg="http://www.w3.org/2000/svg"><defs
     id="defs1" /><g
     id="layer1"
     transform="translate(-646.37607,-421.69271)"><path
       d="m 646.39204,421.69274 c -0.18706,2.33785 1.30916,3.88276 2.41485,5.82083 1.18878,2.08333 2.07275,4.29789 2.68235,6.61458 1.93728,7.35886 1.60761,14.90134 4.07511,22.225 1.35679,4.0267 4.02881,7.39458 5.53191,11.37709 1.37107,3.63299 1.35043,6.9162 2.10079,10.58333 0.31221,1.52612 1.24143,3.18532 1.25783,4.73869 0.0132,1.23825 -0.95594,2.46009 -1.11522,3.72798 -0.59875,4.76408 0.0492,8.97202 -3.74306,12.65396 -2.23387,2.16879 -6.99188,2.99323 -8.22642,5.91185 -2.33098,5.51021 -0.87022,12.41636 -1.52532,18.21127 -0.24924,2.20477 -1.26524,4.94718 1.31101,6.19839 1.73249,0.84164 5.003,0.18309 5.81712,-1.71185 0.73396,-1.70868 0.127,-3.99045 0.34238,-5.80946 0.81385,-6.87308 3.45942,-11.75358 10.50792,-13.75833 1.85764,7.39775 0.68845,15.86733 4.59317,22.75417 1.63512,2.88422 7.02283,5.9772 8.97255,1.31894 1.41049,-3.36999 -1.78858,-3.91557 -3.32581,-6.09282 -0.91837,-1.30122 -1.1946,-3.22395 -1.53829,-4.75112 -1.02473,-4.55216 -0.42333,-11.08737 0.60484,-15.61439 0.29315,-1.2917 1.04907,-2.38125 1.27688,-3.7002 2.97709,0.70723 5.638,2.16747 8.73125,2.56937 5.94783,0.77232 13.38183,0.006 19.31458,-0.79375 4.09998,-0.55245 11.02122,-4.34869 15.02489,-1.77879 1.31524,0.84428 2.09444,3.25543 3.10383,4.50506 1.4269,1.76636 4.04839,3.02524 5.07153,5.02708 1.19116,2.33072 0.73766,5.43481 0.98637,7.93353 0.28813,2.89798 1.36392,6.72121 2.21853,9.525 1.00436,3.29459 4.5503,5.63034 7.99068,4.59079 1.63248,-0.49319 3.22924,-2.24896 2.66726,-4.06136 -0.52466,-1.6928 -2.26827,-2.14815 -3.1951,-3.48853 -1.44595,-2.09206 -1.89918,-6.26639 -1.32424,-8.68256 1.75339,3.30041 2.36881,7.97295 6.08541,9.83191 2.46142,1.23137 8.5008,-0.48842 7.84225,-3.99653 -0.34845,-1.85632 -3.17923,-1.35599 -4.29948,-2.67573 -1.56368,-1.84203 -1.35943,-4.21137 -2.16773,-6.33465 -1.0152,-2.66674 -6.17722,-6.82467 -5.15646,-9.99861 0.49371,-1.53538 3.65469,-2.5519 4.76329,-3.77005 2.59583,-2.8522 3.14219,-6.56934 5.04878,-9.77926 0.55298,-0.93107 0.94192,-2.34712 1.93543,-2.90301 1.07341,-0.6006 2.75458,-0.23045 3.94017,-0.28231 3.70946,-0.16245 8.55187,-0.60431 9.64089,-5.01676 0.5805,-2.35109 -1.84256,-3.8489 -2.57016,-5.82084 -0.65352,-1.77059 -0.38709,-3.78116 -1.11257,-5.55625 -0.82365,-2.0148 -2.75088,-3.1414 -3.73486,-5.02735 -0.75565,-1.44806 -0.45509,-2.99137 -0.90038,-4.49765 -1.80499,1.15306 -2.78924,3.07975 -4.49792,4.35055 -2.08729,1.55231 -4.79028,1.73117 -7.14375,2.65139 -1.53246,0.59901 -2.90962,1.79493 -4.50188,2.17884 -5.51868,1.33112 -10.66165,-0.1479 -16.13562,-0.66913 -4.64608,-0.44238 -9.36281,0.0897 -14.02291,-0.35454 -5.66103,-0.53949 -11.244,-2.07672 -16.93333,-2.32596 -5.29088,-0.23151 -10.56799,-0.28336 -15.875,-0.2749 -1.99258,0.003 -4.70588,0.87022 -6.61459,0.14155 -1.72164,-0.65696 -3.69517,-2.84559 -5.02708,-4.12062 -4.29525,-4.11215 -7.54274,-9.584 -9.06595,-15.33551 -1.45309,-5.4864 -1.67217,-10.94343 -3.59039,-16.40417 -1.31525,-3.7457 -3.92774,-10.01262 -8.51033,-10.05416"
       style="fill:#af8b64;stroke:none;stroke-width:0.264583"
       id="path3-9" /></g></svg>
