<?xml version="1.0" encoding="UTF-8" standalone="no"?>
<!-- Created with Inkscape (http://www.inkscape.org/) -->

<svg
   width="121.622mm"
   height="113.05213mm"
   viewBox="0 0 121.622 113.05213"
   version="1.1"
   id="svg1"
   xml:space="preserve"
   xmlns="http://www.w3.org/2000/svg"
   xmlns:svg="http://www.w3.org/2000/svg"><defs
     id="defs1" /><g
     id="layer1"
     transform="translate(-506.44657,-484.12791)"><path
       d="m 542.66921,566.08098 c 8.18965,2.37013 17.7845,1.91029 26.19772,0.50403 4.39976,-0.73554 8.14414,-2.09153 12.69603,-2.09153 0.46143,5.84517 2.71463,10.99158 3.84995,16.66875 0.82074,4.10501 0.31248,8.55186 2.03518,12.43515 1.50839,3.39989 7.55517,5.24245 9.98722,1.55919 1.59597,-2.41697 -3.45413,-4.14126 -3.83301,-6.85059 -0.47387,-3.39011 0.0537,-9.2337 1.22502,-12.43542 0.53075,-1.45018 1.66317,-2.59609 2.34606,-3.96875 h 0.52916 c 0.97155,2.67361 4.12856,5.8547 4.05421,8.73125 -0.10874,4.21852 -4.08569,7.53824 -2.05554,11.90625 1.18798,2.5564 5.52926,5.23584 7.48929,1.84044 1.0459,-1.81134 -0.36142,-3.43588 -0.12991,-5.28002 0.39053,-3.11256 2.96042,-5.86 3.06202,-8.99584 0.17066,-5.26071 -4.58337,-10.00284 -3.15277,-15.4477 0.40164,-1.52796 1.72932,-2.74452 2.46936,-4.13146 1.42848,-2.67732 2.14233,-8.16637 4.96728,-9.78218 1.05992,-0.60616 2.75802,-0.23098 3.93356,-0.28231 3.71978,-0.16298 8.17298,-0.55721 9.56337,-4.75218 0.8337,-2.51566 -1.72138,-3.99547 -2.49264,-6.08542 -0.65352,-1.77085 -0.38232,-3.78248 -1.11284,-5.55625 -0.81941,-1.9894 -2.72627,-3.1795 -3.73089,-5.02708 -0.77973,-1.43431 -0.46011,-2.99561 -0.90408,-4.49792 -1.89309,1.20915 -2.92259,3.2647 -4.7625,4.55084 -1.93913,1.35546 -4.43759,1.57056 -6.61458,2.35214 -1.5711,0.56409 -2.92735,1.74837 -4.50824,2.21404 -5.48587,1.61554 -10.92597,-0.0847 -16.39385,-0.60537 -4.64502,-0.44238 -9.36439,0.0892 -14.02291,-0.35454 -5.67399,-0.54028 -11.24189,-1.92247 -16.93334,-2.31246 -5.45465,-0.37412 -10.92994,-0.31459 -16.40416,-0.28813 -1.99099,0.01 -4.59899,0.92339 -6.35,-0.34502 -4.07115,-2.94905 -8.18013,-6.37434 -10.75585,-10.76775 -4.51167,-7.69593 -3.8981,-16.80554 -7.46389,-24.87083 -1.27662,-2.8874 -2.84295,-5.93011 -5.07392,-8.19811 -0.71278,-0.72417 -2.13809,-2.1889 -3.31443,-1.68487 -2.13201,0.91281 1.88251,5.45862 2.47703,6.4434 4.35927,7.21915 3.95128,16.09037 5.84411,24.07708 1.33562,5.63457 4.3823,9.87928 6.68179,15.08125 1.64201,3.71448 1.78594,6.99029 2.46751,10.84792 0.29792,1.68645 1.16337,3.32449 1.29672,5.02708 0.21034,2.68234 -1.51077,5.77188 -1.87405,8.46667 -0.59107,4.38943 -0.62177,8.83814 -1.17104,13.23948 -0.41355,3.31258 -1.37372,6.46642 -1.76901,9.77927 -0.55192,4.62332 -0.64822,8.86221 -0.09,13.49375 0.23125,1.9177 0.79852,4.82176 2.95937,5.50888 2.36088,0.75063 7.02178,0.24924 8.34707,-2.15529 0.87498,-1.58697 -0.23918,-3.61447 -0.55933,-5.20568 -0.63288,-3.14457 -0.95091,-6.69819 0.0889,-9.78852 1.19433,-3.54912 3.85393,-6.17935 6.59607,-8.59632 1.54649,-1.36339 3.41021,-2.44289 4.30874,-4.36932"
       style="fill:#af8b64;stroke:none;stroke-width:0.264583"
       id="path2-0" /></g></svg>
