<?xml version="1.0" encoding="UTF-8" standalone="no"?>
<!-- Created with Inkscape (http://www.inkscape.org/) -->

<svg
   width="122.18727mm"
   height="112.35477mm"
   viewBox="0 0 122.18727 112.35477"
   version="1.1"
   id="svg1"
   xml:space="preserve"
   xmlns="http://www.w3.org/2000/svg"
   xmlns:svg="http://www.w3.org/2000/svg"><defs
     id="defs1" /><g
     id="layer1"
     transform="translate(-369.83786,-340.11542)"><path
       d="m 390.48551,444.32895 h 0.26458 c 0,1.93172 -0.5072,4.76515 0.40058,6.53495 1.2991,2.53232 4.94824,1.66978 6.65215,0.13546 2.01613,-1.81557 0.14182,-6.41429 0.095,-8.78707 -0.09,-4.57492 1.82986,-8.31374 4.08358,-12.17084 1.24778,-2.13571 3.74836,-6.34153 6.12934,-7.27816 1.62348,-0.63896 4.41272,0.93769 6.18728,0.89403 7.00326,-0.17251 14.98045,0.11192 21.69584,-2.08253 2.11904,-0.69242 7.10988,-2.34871 9.18024,-1.01098 1.29673,0.83794 1.46103,5.07577 1.89521,6.56723 1.14195,3.92324 3.07499,7.43108 3.82879,11.48926 0.89879,4.84029 -2.75061,13.84935 5.62107,13.84988 1.60735,2.7e-4 4.30927,-0.22516 4.4667,-2.32039 0.13705,-1.8288 -2.58842,-2.47068 -2.95778,-4.2344 -0.54134,-2.58365 0.74692,-4.94691 1.15914,-7.43108 0.73184,-4.40743 -0.67839,-10.1399 4.32329,-12.67619 0.76809,3.05038 3.62797,5.62054 5.34009,8.20208 2.61117,3.93753 4.47992,9.66047 7.91659,12.90902 2.29262,2.1672 7.14428,3.00964 8.71141,-0.47466 1.56342,-3.4753 -3.24273,-5.02655 -4.80668,-7.40727 -1.54596,-2.35321 -2.46883,-4.89612 -3.66343,-7.40834 -1.84202,-3.87456 -4.1865,-7.64275 -4.28413,-12.05865 -0.072,-3.25755 2.26536,-7.6745 3.8952,-10.43093 0.55033,-0.93054 0.89297,-2.31563 1.98675,-2.75087 4.52544,-1.80076 10.75346,1.68513 13.21303,-4.65746 0.93663,-2.41591 -1.58221,-4.08332 -2.37834,-6.08542 -0.76861,-1.93225 -0.39238,-4.16825 -1.30307,-6.08542 -1.74175,-3.66739 -4.2545,-4.52411 -4.2545,-8.99583 -2.12487,0.72443 -2.99191,2.96571 -4.77282,4.20555 -2.18493,1.52109 -4.73234,1.7108 -7.13343,2.6543 -1.62084,0.63685 -3.05303,1.79837 -4.7625,2.18281 -5.88116,1.32292 -11.86947,-0.23812 -17.72708,-0.7956 -4.20926,-0.40058 -8.47699,0.0489 -12.7,-0.35454 -5.84333,-0.55827 -11.61654,-1.73514 -17.4625,-2.29129 -3.9243,-0.37359 -8.23384,-0.63923 -12.17084,-0.26458 -2.23361,0.21246 -6.57939,1.06653 -8.65584,0.17118 -1.43722,-0.61965 -2.79321,-2.26245 -4.04416,-3.21813 -3.04482,-2.32542 -5.91661,-5.00406 -7.84833,-8.37512 -4.19762,-7.32604 -3.96505,-16.07343 -7.12788,-23.8125 -1.27185,-3.11097 -3.03609,-6.31719 -5.40729,-8.72728 -0.81597,-0.8292 -2.30134,-2.26536 -3.61923,-1.69227 -2.01348,0.8755 1.52056,4.48468 2.1291,5.39247 4.30345,6.41694 4.43415,13.8594 5.8928,21.16667 0.74903,3.75205 1.41367,7.63825 3.10197,11.1125 2.1934,4.51299 5.02338,8.26717 6.41562,13.22916 0.49583,1.76768 0.20003,3.50653 0.4572,5.29167 0.24157,1.67587 1.465,3.60839 1.29011,5.29167 -0.2585,2.4892 -2.15027,5.48401 -2.91042,7.9375 -1.37133,4.42383 -2.07301,9.04742 -3.41206,13.49375 -0.86863,2.88395 -2.3585,5.58165 -3.16971,8.46666 -1.25254,4.45585 -0.73502,10.5029 0.85857,14.81667 1.86875,5.0583 8.70479,2.21271 9.3808,-2.11667"
       style="fill:#ae8b65;stroke:none;stroke-width:0.264583"
       id="path3-92" /></g></svg>
