<!DOCTYPE svg PUBLIC "-//W3C//DTD SVG 1.1//EN" "http://www.w3.org/Graphics/SVG/1.1/DTD/svg11.dtd">
<!-- Uploaded to: SVG Repo, www.svgrepo.com, Transformed by: SVG Repo Mixer Tools -->
<svg width="800px" height="800px" viewBox="0 0 24 24" fill="none" xmlns="http://www.w3.org/2000/svg">
<g id="SVGRepo_bgCarrier" stroke-width="0"/>
<g id="SVGRepo_tracerCarrier" stroke-linecap="round" stroke-linejoin="round"/>
<g id="SVGRepo_iconCarrier"> <path d="M15 3h-2v2h2v2h2v2h-2v2h2V9h2V7h-2V5h-2V3zm-2 0h-2v6H9V7H7V5H5v2h2v2h2v2h2v2H9v2H7v2H5v2h2v-2h2v-2h2v6h2V3zm2 8h-2v2h2v2h2v2h-2v2h-2v2h2v-2h2v-2h2v-2h-2v-2h-2v-2z" fill="#D1AB86"/> </g>
</svg>