<?xml version="1.0" encoding="UTF-8" standalone="no"?>
<!-- Created with Inkscape (http://www.inkscape.org/) -->

<svg
   width="54.326756mm"
   height="47.31506mm"
   viewBox="0 0 54.326755 47.31506"
   version="1.1"
   id="svg1"
   xml:space="preserve"
   sodipodi:docname="reboot.svg"
   xmlns:inkscape="http://www.inkscape.org/namespaces/inkscape"
   xmlns:sodipodi="http://sodipodi.sourceforge.net/DTD/sodipodi-0.dtd"
   xmlns="http://www.w3.org/2000/svg"
   xmlns:svg="http://www.w3.org/2000/svg"><sodipodi:namedview
     id="namedview1"
     pagecolor="#ffffff"
     bordercolor="#000000"
     borderopacity="0.25"
     inkscape:showpageshadow="2"
     inkscape:pageopacity="0.0"
     inkscape:pagecheckerboard="0"
     inkscape:deskcolor="#d1d1d1"
     inkscape:document-units="mm"><inkscape:page
       x="0"
       y="0"
       width="54.326756"
       height="47.31506"
       id="page1"
       margin="0"
       bleed="0" /></sodipodi:namedview><defs
     id="defs1" /><g
     inkscape:label="Layer 1"
     inkscape:groupmode="layer"
     id="layer1"
     transform="translate(-83.884785,-231.99578)"><path
       style="fill:#d1ab86;fill-opacity:1;stroke:#d1ab86;stroke-width:1.73902;stroke-linecap:butt;stroke-linejoin:miter;stroke-dasharray:none;stroke-opacity:1"
       d="m 104.03647,277.56486 v -0.87646 h -1.75292 -1.75293 v -0.87646 -0.87646 H 98.777694 97.02477 v -0.87647 -0.87646 h -0.876467 -0.876457 v -0.87646 -0.87646 h -0.876467 -0.876458 v -1.75292 -1.75293 h -0.876466 -0.876462 v -0.87647 -0.87645 h -0.876462 -0.876463 v -1.75293 -1.75292 h -0.876462 -0.876462 v -1.75293 -1.75292 H 86.50722 84.754295 v -0.87647 -0.87646 h 0.876462 0.876463 v -0.87646 -0.87646 h 0.876462 0.876462 v -0.87647 -0.87645 h 1.752924 1.752925 v 0.87645 0.87647 h 0.876462 0.876466 v 0.87646 0.87646 h 0.876458 0.876467 v 0.87646 0.87647 h -1.752925 -1.752928 v 0.87646 0.87646 h 0.876462 0.876466 v 1.75293 1.75292 h 0.876458 0.876467 v 0.87646 0.87647 h 0.876457 0.876467 v 1.75292 1.75293 h 0.876458 0.876466 v 0.87645 0.87647 h 1.752926 1.75293 v 0.87646 0.87646 h 1.75292 1.75293 v 0.87646 0.87647 h 5.25877 5.25877 v -0.87647 -0.87646 h 1.75293 1.75292 v -0.87646 -0.87646 h 1.75293 1.75292 v -0.87647 -0.87645 h 0.87646 0.87646 v -0.87647 -0.87646 h 0.87646 0.87646 v -1.75292 -1.75293 h 0.87647 0.87645 v -1.75292 -1.75293 h 0.87647 0.87646 v 0.87646 0.87647 h 0.87647 0.87645 v 1.75292 1.75293 h -0.87645 -0.87647 v 1.75292 1.75293 h -0.87646 -0.87647 v 0.87645 0.87647 h -0.87645 -0.87647 v 0.87646 0.87646 h -0.87646 -0.87646 v 0.87646 0.87647 h -1.75292 -1.75292 v 0.87646 0.87646 h -1.75293 -1.75292 v 0.87646 0.87647 h -7.0117 -7.0117 z m 26.29386,-21.03509 v -0.87646 h -0.87646 -0.87647 v -0.87647 -0.87645 h -0.87645 -0.87647 v -0.87647 -0.87646 h 1.75292 1.75293 v -0.87647 -0.87645 h -0.87646 -0.87647 v -1.75293 -1.75292 h -0.87645 -0.87647 v -1.75293 -1.75292 h -0.87646 -0.87646 v -0.87646 -0.87647 h -0.87646 -0.87646 v -0.87645 -0.87647 h -1.75292 -1.75293 v -0.87646 -0.87646 h -1.75292 -1.75293 v -0.87646 -0.87647 h -5.25877 -5.25877 v 0.87647 0.87646 h -1.75293 -1.75292 v 0.87646 0.87646 h -1.75293 -1.752926 v 0.87647 0.87645 H 97.901228 97.02477 v 0.87647 0.87646 h -0.876467 -0.876457 v 1.75292 1.75293 h -0.876467 -0.876458 v 1.75292 1.75293 h -0.876466 -0.876462 v -0.87647 -0.87646 h -0.876462 -0.876463 v -1.75292 -1.75293 h 0.876463 0.876462 v -1.75292 -1.75293 h 0.876462 0.876466 v -0.87645 -0.87647 h 0.876458 0.876467 v -0.87646 -0.87646 h 0.876457 0.876467 v -0.87646 -0.87647 h 1.752924 1.752926 v -0.87646 -0.87646 h 1.75293 1.75292 v -0.87646 -0.87647 h 7.0117 7.0117 v 0.87647 0.87646 h 1.75292 1.75293 v 0.87646 0.87646 h 1.75292 1.75292 v 0.87647 0.87646 h 0.87646 0.87646 v 0.87646 0.87646 h 0.87647 0.87645 v 0.87647 0.87645 h 0.87647 0.87646 v 1.75293 1.75292 h 0.87647 0.87645 v 1.75293 1.75292 h 0.87647 0.87646 v 1.75293 1.75292 h 1.75292 1.75293 v 0.87646 0.87647 h -0.87646 -0.87647 v 0.87645 0.87647 h -0.87646 -0.87646 v 0.87646 0.87646 h -1.75293 -1.75292 z"
       id="path1" /></g></svg>
