<?xml version="1.0" encoding="UTF-8" standalone="no"?>
<!-- Created with Inkscape (http://www.inkscape.org/) -->

<svg
   width="13.326035mm"
   height="14.998011mm"
   viewBox="0 0 13.326035 14.998011"
   version="1.1"
   id="svg1"
   xml:space="preserve"
   inkscape:version="1.4.2 (ebf0e940d0, 2025-05-08)"
   sodipodi:docname="drawing.svg"
   xmlns:inkscape="http://www.inkscape.org/namespaces/inkscape"
   xmlns:sodipodi="http://sodipodi.sourceforge.net/DTD/sodipodi-0.dtd"
   xmlns="http://www.w3.org/2000/svg"
   xmlns:svg="http://www.w3.org/2000/svg"><sodipodi:namedview
     id="namedview1"
     pagecolor="#ffffff"
     bordercolor="#000000"
     borderopacity="0.25"
     inkscape:showpageshadow="2"
     inkscape:pageopacity="0.0"
     inkscape:pagecheckerboard="0"
     inkscape:deskcolor="#d1d1d1"
     inkscape:document-units="mm"
     inkscape:zoom="1.1515675"
     inkscape:cx="550.11975"
     inkscape:cy="665.18031"
     inkscape:window-width="1735"
     inkscape:window-height="960"
     inkscape:window-x="0"
     inkscape:window-y="0"
     inkscape:window-maximized="1"
     inkscape:current-layer="layer1"><inkscape:page
       x="0"
       y="0"
       width="13.326035"
       height="14.998011"
       id="page2"
       margin="0"
       bleed="0" /></sodipodi:namedview><defs
     id="defs1" /><g
     inkscape:label="Layer 1"
     inkscape:groupmode="layer"
     id="layer1"
     transform="translate(-40.207877,-91.800679)"><path
       id="path10"
       style="fill:#261e17;stroke:none"
       d="m 40.153105,98.009522 v 22.303548 c 5.380329,-4.10328 10.030603,-5.28728 13.49375,-5.36401 V 94.322925 c -2.987186,-3.216897 -7.285798,-3.419698 -13.438973,3.624068 -0.01824,0.02088 -0.03658,0.0417 -0.05478,0.06253 z" /><path
       id="path9"
       style="fill:#261e17;stroke:none"
       d="m 40.153105,98.009522 c 0.0182,-0.02083 0.03654,-0.04165 0.05478,-0.06253 6.153175,-7.043766 10.451787,-6.840965 13.438973,-3.624068 V 69.594719 39.696802 32.023885 c 0,-1.060934 0.221956,-2.475445 -0.460954,-3.379121 -0.655334,-0.867179 -1.731544,-0.848511 -2.714046,-0.853695 -2.545309,-0.01342 -6.617114,-0.768654 -8.983948,0.195854 -1.461529,0.595587 -1.334295,2.19494 -1.334802,3.507796 v 9.789583 42.06875 z m 8.466666,-62.546053 -0.79375,1.852083 h -0.264583 l 0.529167,-1.5875 -0.79375,0.264583 z m -2.729032,0.0036 c 0.02703,3.29e-4 0.05459,0.0022 0.0832,0.0062 1.001722,0.138799 0.825039,2.028348 -0.195854,1.826245 -0.800956,-0.158554 -0.725202,-1.842652 0.112655,-1.832446 z m -0.181384,0.260966 0.529166,1.322917 v -1.322917 z m 0.79375,4.497917 v 0.264583 h -0.33073 z m 2.116666,0 -0.79375,1.852083 h -0.264583 l 0.529167,-1.5875 -0.79375,0.264583 z m -2.819466,0.562239 h 5.17e-4 c 1.370287,0.533376 0.216225,1.895523 -0.620634,0.760677 l 1.058333,0.264584 -1.058333,-0.529167 z m 1.231966,7.110677 v 2.645834 h -0.264583 l -1.322917,-0.79375 v -1.058334 z m 0.79375,0 c 0.77533,1.095734 0.788387,1.76509 -0.264583,2.645834 z m -1.322916,0.79375 c -0.411143,0.584799 -0.33703,0.68418 0.264583,1.058334 z m 1.058333,0 v 1.058334 h -0.264583 z m -0.529167,4.047299 c 1.369434,0 1.058277,1.938011 1.058334,2.831868 v 9.260417 h -2.116667 v -9.260417 c 5.8e-5,-0.89389 -0.311102,-2.831868 1.058333,-2.831868 z m 0.02222,17.926037 c 2.467427,0.08198 3.433355,3.896512 0.767395,4.634859 -3.040232,0.842003 -4.520974,-3.717812 -1.579232,-4.532539 0.285021,-0.07894 0.556586,-0.1108 0.811837,-0.10232 z m -0.08165,0.822172 c -0.213604,0.0022 -0.439981,0.05058 -0.67386,0.156063 -1.795861,0.809996 -0.404444,3.624085 1.466577,2.780192 1.571374,-0.708746 0.702513,-2.951902 -0.792717,-2.936255 z m 0.05943,5.954159 c 3.073205,0 3.141244,4.829162 0,4.829162 -3.141247,0 -3.073204,-4.829162 0,-4.829162 z m -0.05943,0.925008 c -0.213604,0.0022 -0.439981,0.05057 -0.67386,0.156063 -1.795869,0.809996 -0.404433,3.624085 1.466577,2.780192 1.571376,-0.708747 0.702512,-2.951902 -0.792717,-2.936255 z" /><path
       id="path7"
       style="fill:#261e17;stroke:none"
       d="m 35.390605,12.709302 v 90.250308 c 0.08751,-0.10126 0.175699,-0.20315 0.264583,-0.30593 V 12.973885 H 119.5281 V 283.11347 H 35.655188 V 123.77074 c -0.08805,0.0891 -0.176247,0.17906 -0.264583,0.26975 V 283.37805 H 119.79269 V 12.709302 Z" /><path
       style="fill:#f0bb90;fill-opacity:1;stroke-width:0.128213;stroke-linecap:square;stroke-linejoin:bevel;paint-order:stroke fill markers"
       d="m 40.207877,100.90656 v -5.98865 l 1.550876,-0.82104 c 4.669883,-2.472258 7.691543,-2.891511 11.028444,-1.530193 l 0.746718,0.30463 v 5.628349 5.628354 l -0.976476,8.6e-4 c -2.529084,0.002 -7.239104,0.94206 -10.408788,2.07687 -0.751507,0.26905 -1.495615,0.53424 -1.653574,0.58932 -0.228317,0.0796 -0.2872,-1.12767 -0.2872,-5.88852 z"
       id="path15"
       inkscape:export-filename="1.png"
       inkscape:export-xdpi="96"
       inkscape:export-ydpi="96" /></g></svg>
