<?xml version="1.0" encoding="UTF-8" standalone="no"?>
<!-- Created with Inkscape (http://www.inkscape.org/) -->

<svg
   width="13.326044mm"
   height="14.998011mm"
   viewBox="0 0 13.326044 14.998011"
   version="1.1"
   id="svg1"
   xml:space="preserve"
   xmlns="http://www.w3.org/2000/svg"
   xmlns:svg="http://www.w3.org/2000/svg"><defs
     id="defs1" /><g
     id="layer1"
     transform="translate(-77.888396,-94.55779)"><path
       id="path7"
       style="fill:#261e17;stroke:none"
       d="m 35.390605,12.709302 v 90.250308 c 0.08751,-0.10126 0.175699,-0.20315 0.264583,-0.30593 V 12.973885 H 119.5281 V 283.11347 H 35.655188 V 123.77074 c -0.08805,0.0891 -0.176247,0.17906 -0.264583,0.26975 V 283.37805 H 119.79269 V 12.709302 Z" /><path
       style="fill:#F0BB90;fill-opacity:1;stroke-width:0.128213;stroke-linecap:square;stroke-linejoin:bevel;paint-order:stroke fill markers"
       d="m 77.888401,103.66367 v -5.988648 l 1.550876,-0.82104 c 4.669883,-2.472258 7.691543,-2.891511 11.028444,-1.530193 l 0.746718,0.30463 v 5.628351 5.62835 l -0.976476,8.6e-4 c -2.529084,0.002 -7.239104,0.94206 -10.408788,2.07687 -0.751507,0.26905 -1.495615,0.53424 -1.653574,0.58932 -0.228317,0.0796 -0.2872,-1.12767 -0.2872,-5.88852 z"
       id="path15" /></g></svg>
