<?xml version="1.0" encoding="UTF-8" standalone="no"?>
<!-- Created with Inkscape (http://www.inkscape.org/) -->

<svg
   width="13.325741mm"
   height="29.045288mm"
   viewBox="0 0 13.325741 29.045288"
   version="1.1"
   id="svg1"
   xml:space="preserve"
   xmlns="http://www.w3.org/2000/svg"
   xmlns:svg="http://www.w3.org/2000/svg"><defs
     id="defs1" /><g
     id="layer1"
     transform="translate(-40.208157,-181.63668)"><path
       id="path11"
       style="fill:#261e17;stroke:none"
       d="m 53.646855,200.27821 c -5.530424,4.91854 -9.957764,8.3585 -13.49375,10.74509 v 17.85059 29.89791 7.67292 c 0,1.06093 -0.221962,2.47543 0.460953,3.37912 0.655314,0.86716 1.731558,0.84904 2.714047,0.85421 2.545308,0.0134 6.617628,0.76813 8.984464,-0.19637 1.461527,-0.59557 1.33378,-2.19493 1.334286,-3.50779 v -9.78959 -42.06875 z m -6.614584,25.15609 c -1.356448,2.69919 0.211221,4.26688 2.910417,2.91042 v 1.32292 h -5.820833 c 0.151866,-2.13882 0.615094,-3.63411 2.910416,-4.23334 z m 1.852084,0.26459 h 0.529166 l 0.264584,0.26458 v 0.52917 l -0.264584,0.26458 h -0.529166 l -0.264584,-0.26458 v -0.52917 z m 0.264583,4.49791 v 0.26459 h -4.233333 z m -0.79375,0.79375 v 0.26459 h -2.645833 z m -2.645833,5.02709 c 0.605551,0.1637 1.082582,0.40314 1.62264,0.73277 0.308362,0.1882 0.635285,0.3704 0.896586,0.62425 2.599025,2.52499 -3.497266,2.98953 -2.519226,0.49506 l -0.79375,-0.26458 z m 0.79375,3.79253 c 0.204618,0 0.04273,0.13189 -0.08785,0.0884 z m 0.79375,0.26458 c 0.204618,0 0.04273,0.13138 -0.08785,0.0879 z m -1.322917,2.0283 0.264583,1.85209 -1.058333,-1.5875 z m 2.38125,0.26459 v 0.26458 h -1.322917 z m 0.529167,0 h 1.058333 v 0.26458 l -0.79375,-0.26458 0.264583,0.52916 h -0.264583 z m -1.058334,0.52916 0.529167,1.05834 h -1.322917 v -0.26459 h 1.058334 l -0.529167,-0.52916 z m -1.5875,9.87795 c 0.204619,0 0.04272,0.1319 -0.08785,0.0884 z m 1.5875,0 c 0.204618,0 0.04272,0.1319 -0.08785,0.0884 z m 1.322917,0.26459 0.08837,0.0884 c -0.130577,0.0435 -0.29299,-0.0884 -0.08837,-0.0884 z m -4.233333,0.26458 0.08837,0.0884 c -0.130576,0.0435 -0.292989,-0.0884 -0.08837,-0.0884 z m 2.116666,0.17622 h 0.264584 l 0.529166,0.52916 v 0.26459 h -1.5875 v -0.26459 z m -1.852083,0.26458 v 0.26458 l -1.058333,0.26459 z m 1.5875,7.40833 h 0.529167 v 2.91042 h -0.529167 z m -0.79375,0.52917 c -0.185233,0.7462 -0.761958,1.60038 -0.671794,2.38021 0.222437,1.92383 2.867511,2.10229 3.407028,0.26149 0.258074,-0.88052 -0.447179,-1.68391 -0.883151,-2.37712 l 0.264584,-0.26458 c 1.73782,1.37346 1.817581,4.70514 -1.058334,4.70514 -2.812247,0 -2.760142,-3.35613 -1.058333,-4.70514 z" /><path
       id="path14"
       style="fill:#261e17;stroke:none"
       d="m 53.646855,181.01944 c -2.690469,5.29718 -6.921653,11.83123 -13.49375,19.74867 v 10.25519 c 3.535986,-2.38659 7.963326,-5.82655 13.49375,-10.74509 z" /><path
       id="path13"
       style="fill:#261e17;stroke:none"
       d="m 53.646855,114.41989 c -3.463147,0.0767 -8.113421,1.26073 -13.49375,5.36401 v 80.98421 c 6.572097,-7.91744 10.803281,-14.45149 13.49375,-19.74867 z m -5.55625,21.84983 c -0.0066,1.87143 -0.570119,2.87547 -2.116667,3.96875 0.0053,-1.83099 0.34746,-3.13616 2.116667,-3.96875 z m 0,4.23333 c -0.0066,1.87143 -0.570114,2.87547 -2.116667,3.96875 0.0053,-1.83101 0.347459,-3.13616 2.116667,-3.96875 z m 0,4.23334 c -0.0066,1.87143 -0.570115,2.87547 -2.116667,3.96875 0.0053,-1.83101 0.347459,-3.13617 2.116667,-3.96875 z m 0,4.23333 c -0.0066,1.87145 -0.570111,2.87547 -2.116667,3.96875 0.0053,-1.83102 0.347456,-3.13618 2.116667,-3.96875 z m 0,4.23333 c -0.0066,1.87145 -0.570112,2.87547 -2.116667,3.96875 0.0053,-1.83102 0.347457,-3.13617 2.116667,-3.96875 z m 0,4.49792 c 0,2.68198 0.771617,6.05667 -2.116667,7.40833 0,-2.68197 -0.77162,-6.05667 2.116667,-7.40833 z" /><path
       id="path7"
       style="fill:#261e17;stroke:none"
       d="m 35.390605,12.709302 v 90.250308 c 0.08751,-0.10126 0.175699,-0.20315 0.264583,-0.30593 V 12.973885 H 119.5281 V 283.11347 H 35.655188 V 123.77074 c -0.08805,0.0891 -0.176247,0.17906 -0.264583,0.26975 V 283.37805 H 119.79269 V 12.709302 Z" /><path
       style="fill:#f0bb90;fill-opacity:1;stroke-width:0.656414;stroke-linecap:square;stroke-linejoin:bevel;paint-order:stroke fill markers"
       d="m 151.96784,777.85282 0.001,-18.45311 5.29822,-6.48218 c 13.94395,-17.05995 29.43195,-39.29524 39.32228,-56.45288 l 5.74351,-9.96378 -0.0111,35.14685 -0.0111,35.14685 -12.24812,10.42058 c -12.19499,10.37536 -36.20424,29.01058 -37.44444,29.06317 -0.35821,0.0152 -0.65081,-8.27629 -0.65023,-18.4255 z"
       id="path16"
       transform="scale(0.26458333)" /><path
       style="fill:#f0bb90;fill-opacity:1;stroke-width:0.122388;stroke-linecap:square;stroke-linejoin:bevel;paint-order:stroke fill markers"
       d="m 40.277009,216.59518 2.65e-4,-2.42453 1.401821,-0.85168 c 3.689336,-2.24148 7.787203,-5.16294 10.40402,-7.41725 l 1.519637,-1.30913 -0.0029,4.61789 -0.0029,4.61789 -3.240649,1.36914 c -3.226591,1.36321 -9.579038,3.81166 -9.907174,3.81857 -0.09478,0.002 -0.172194,-1.08741 -0.17204,-2.4209 z"
       id="path16-7" /></g></svg>
