<?xml version="1.0" encoding="UTF-8" standalone="no"?>
<!-- Created with Inkscape (http://www.inkscape.org/) -->

<svg
   width="13.325737mm"
   height="29.045288mm"
   viewBox="0 0 13.325737 29.045288"
   version="1.1"
   id="svg1"
   xml:space="preserve"
   xmlns="http://www.w3.org/2000/svg"
   xmlns:svg="http://www.w3.org/2000/svg"><defs
     id="defs1" /><g
     id="layer1"
     transform="translate(-76.969642,-181.63668)"><path
       id="path7"
       style="fill:#261e17;stroke:none"
       d="m 35.390605,12.709302 v 90.250308 c 0.08751,-0.10126 0.175699,-0.20315 0.264583,-0.30593 V 12.973885 H 119.5281 V 283.11347 H 35.655188 V 123.77074 c -0.08805,0.0891 -0.176247,0.17906 -0.264583,0.26975 V 283.37805 H 119.79269 V 12.709302 Z" /><path
       style="fill:#f0bb90;fill-opacity:1;stroke-width:0.173676;stroke-linecap:square;stroke-linejoin:bevel;paint-order:stroke fill markers"
       d="m 76.969644,205.80689 2.64e-4,-4.88239 1.401821,-1.71507 c 3.689337,-4.51378 7.787203,-10.39687 10.40402,-14.93649 l 1.519637,-2.63625 -0.0029,9.29927 -0.0029,9.29927 -3.240648,2.75711 c -3.226591,2.74515 -9.579039,7.67572 -9.907175,7.68963 -0.09478,0.004 -0.172193,-2.18977 -0.17204,-4.87508 z"
       id="path16" /></g></svg>
