<?xml version="1.0" encoding="UTF-8" standalone="no"?>
<!-- Created with Inkscape (http://www.inkscape.org/) -->

<svg
   width="13.325866mm"
   height="14.42349mm"
   viewBox="0 0 13.325866 14.42349"
   version="1.1"
   id="svg1"
   xml:space="preserve"
   xmlns="http://www.w3.org/2000/svg"
   xmlns:svg="http://www.w3.org/2000/svg"><defs
     id="defs1" /><g
     id="layer1"
     transform="translate(-86.688264,-225.73045)"><path
       id="path7"
       style="fill:#261e17;stroke:none"
       d="m 35.390605,12.709302 v 90.250308 c 0.08751,-0.10126 0.175699,-0.20315 0.264583,-0.30593 V 12.973885 H 119.5281 V 283.11347 H 35.655188 V 123.77074 c -0.08805,0.0891 -0.176247,0.17906 -0.264583,0.26975 V 283.37805 H 119.79269 V 12.709302 Z" /><path
       style="fill:#f0bb90;fill-opacity:1;stroke-width:0.122388;stroke-linecap:square;stroke-linejoin:bevel;paint-order:stroke fill markers"
       d="m 86.688386,237.73303 2.65e-4,-2.42453 1.401821,-0.85168 c 3.689336,-2.24148 7.787203,-5.16294 10.40402,-7.41725 l 1.519638,-1.30913 -0.003,4.61789 -0.003,4.61789 -3.24065,1.36914 c -3.226591,1.36321 -9.579038,3.81166 -9.907174,3.81857 -0.09478,0.002 -0.172194,-1.08741 -0.17204,-2.4209 z"
       id="path16-7" /></g></svg>
