<?xml version="1.0" encoding="UTF-8" standalone="no"?>
<!-- Created with Inkscape (http://www.inkscape.org/) -->

<svg
   width="121.27031mm"
   height="113.13502mm"
   viewBox="0 0 121.27031 113.13502"
   version="1.1"
   id="svg1"
   xml:space="preserve"
   xmlns="http://www.w3.org/2000/svg"
   xmlns:svg="http://www.w3.org/2000/svg"><defs
     id="defs1" /><g
     id="layer1"
     transform="translate(-525.68171,-275.62002)"><path
       d="m 621.34198,380.00876 c 1.0623,-0.70194 1.33773,-2.08677 1.9349,-3.175 0.67442,-1.22873 1.62613,-2.2913 1.89653,-3.70417 0.82629,-4.3143 -1.73461,-9.02123 -1.42637,-13.49375 0.22172,-3.2221 2.50904,-4.33467 4.0857,-6.87917 2.0021,-3.23082 2.4839,-7.20751 4.9059,-10.23461 0.86281,-1.07844 2.99641,-0.55351 4.21375,-0.63712 3.6666,-0.25082 9.51627,-0.5969 9.98644,-5.53243 0.19156,-2.01216 -1.7481,-3.3835 -2.53471,-5.02709 -0.85064,-1.77667 -0.44794,-3.9878 -1.24248,-5.82083 -0.85937,-1.98332 -2.71172,-3.17738 -3.71766,-5.02708 -0.76095,-1.39939 -0.6395,-2.96043 -0.6395,-4.49792 -2.04894,0.81042 -3.00064,3.02604 -4.7625,4.28916 -2.1463,1.53908 -4.74742,1.77509 -7.14375,2.71277 -1.63089,0.63791 -3.04985,1.8124 -4.76356,2.2016 -5.39194,1.22529 -10.51428,-0.1815 -15.87394,-0.69188 -4.37674,-0.41699 -8.84661,0.0627 -13.22917,-0.35455 -5.82374,-0.55403 -11.61574,-2.06983 -17.4625,-2.32595 -5.55466,-0.24315 -11.09795,-0.2749 -16.66875,-0.2749 -1.81716,0 -4.86648,0.88 -6.41747,-0.21246 -6.62331,-4.66566 -11.60938,-11.01302 -13.84247,-18.83754 -1.50733,-5.28214 -1.5359,-10.64842 -3.60627,-15.875 -1.2364,-3.12023 -2.7559,-6.47726 -5.05275,-8.97202 -0.7493,-0.81386 -2.10211,-2.16244 -3.33136,-2.00634 -2.43126,0.30877 0.41989,3.85472 0.93556,4.62836 4.46961,6.7056 4.27355,13.85782 5.82613,21.43125 0.7739,3.7756 1.5068,7.56735 3.07446,11.1125 1.7272,3.90604 4.23068,7.2427 5.60916,11.37708 0.91123,2.73315 0.83026,5.18081 1.31736,7.9375 0.31777,1.79943 1.43272,3.7219 1.33271,5.55625 -0.16854,3.10224 -1.19592,6.09785 -1.19063,9.26042 0.004,2.45904 0.86704,6.18675 0.0476,8.46667 -1.1086,3.08504 -4.85563,3.90075 -6.28755,6.66326 -0.66199,1.27768 -0.37492,3.05594 -0.37492,4.44924 0,4.3807 1.26577,8.61033 1.56369,12.96458 0.12938,1.88674 -0.58526,4.73234 0.68897,6.31481 1.75154,2.17514 3.66872,0.12435 5.64277,0.55589 0.94033,0.20584 1.40309,1.39779 2.18255,1.89812 1.71132,1.09828 5.13847,0.31353 6.20924,-1.41684 2.09418,-3.38403 -2.02485,-4.58735 -2.7514,-7.307 -1.17343,-4.39209 -0.31089,-11.6295 1.92987,-15.63053 1.10543,-1.97352 4.27567,-2.76066 5.8256,-4.48839 0.57388,-0.63976 1.10199,-2.02459 2.01982,-2.19578 1.20836,-0.22542 3.26152,0.96626 4.47014,1.26842 2.55323,0.63844 5.05169,0.68871 7.67292,0.62441 5.01253,-0.12276 10.71272,-0.0709 15.61042,-1.16681 3.77877,-0.84561 8.17695,-3.00963 12.15522,-1.92008 1.60391,0.43921 2.30558,6.02165 2.97207,7.58984 1.83964,4.33017 4.35848,8.13858 5.71975,12.69894 1.02791,3.44434 1.45548,8.05841 4.56327,10.37458 2.63048,1.96003 7.69884,1.75577 8.74897,-1.90791 0.3683,-1.28562 -0.71384,-3.34407 -0.82179,-4.7625"
       style="fill:#af8b64;stroke:none;stroke-width:0.264583"
       id="path3-32" /></g></svg>
