<?xml version="1.0" encoding="UTF-8" standalone="no"?>
<!-- Created with Inkscape (http://www.inkscape.org/) -->

<svg
   width="122.8442mm"
   height="111.57101mm"
   viewBox="0 0 122.8442 111.57101"
   version="1.1"
   id="svg1"
   xml:space="preserve"
   xmlns="http://www.w3.org/2000/svg"
   xmlns:svg="http://www.w3.org/2000/svg"><defs
     id="defs1" /><g
     id="layer1"
     transform="translate(-306.69008,-249.97671)"><path
       d="m 319.79427,354.90818 c 2.69081,-1.83621 -0.21802,-3.73275 -0.89879,-5.56022 -0.54504,-1.46209 0.0198,-3.55997 0.35904,-5.02418 0.46169,-1.99337 2.08782,-3.44064 3.28453,-5.02602 3.64332,-4.826 7.21281,-8.35157 13.3948,-9.26042 -0.0296,3.53007 -3.08795,6.50769 -2.98106,9.78959 0.15769,4.83631 3.51684,9.85599 5.18133,14.2875 0.72523,1.93119 0.72576,4.65216 1.99443,6.29999 1.79547,2.33151 5.75416,0.68924 6.87017,-1.53855 0.98637,-1.96877 -1.28666,-5.22076 -1.87933,-7.14269 -1.49225,-4.8387 -1.40811,-9.23714 0.39052,-14.02292 0.50933,-1.35546 1.08956,-3.48483 2.37993,-4.3143 1.50469,-0.96731 5.94757,0.23442 7.88776,0.006 4.38467,-0.51753 8.84555,-0.20214 13.22917,-0.83159 3.85233,-0.55324 7.4377,-2.23546 11.37708,-2.268 -0.19764,4.59105 -1.0631,9.65596 -2.51751,14.02291 -1.21867,3.65866 -3.35148,7.40013 -3.01387,11.37709 0.26405,3.11044 6.01504,7.29482 8.75824,4.38308 1.6301,-1.73011 -0.54002,-2.85803 -1.09749,-4.38705 -0.3945,-1.08162 0.0558,-2.65642 0.4437,-3.69623 1.30466,-3.49938 4.61037,-9.11305 7.74965,-11.19611 2.1074,-1.39859 4.78975,-1.60417 6.82995,-3.08637 1.53115,-1.1123 1.46474,-4.08172 3.23189,-4.4913 2.74637,-0.63632 4.37594,2.80115 6.07377,4.48125 2.75775,2.72918 5.57689,5.16334 8.01423,8.20314 1.80869,2.25557 3.09986,4.97972 5.00592,7.13978 1.97855,2.24208 6.82731,3.50811 8.81247,0.50456 2.28812,-3.46207 -2.41352,-5.21493 -4.2074,-7.38002 -2.05396,-2.47862 -3.30994,-5.33215 -5.13292,-7.93723 -2.54952,-3.64332 -6.21268,-6.99638 -6.88049,-11.64167 -0.45296,-3.15066 0.40455,-5.29008 1.93808,-7.9375 0.42042,-0.72549 0.67574,-1.85367 1.50548,-2.22171 4.48865,-1.99072 11.60621,1.79494 13.52894,-5.18662 0.62044,-2.25293 -1.60259,-3.73513 -2.4392,-5.55625 -0.86571,-1.8841 -0.43312,-4.17275 -1.33852,-6.08542 -1.76927,-3.73803 -4.2545,-4.70694 -4.2545,-9.26042 -2.15107,0.8509 -3.15543,3.24009 -5.02709,4.55084 -2.04417,1.43139 -4.61645,1.55019 -6.87916,2.44739 -1.533,0.60775 -2.90672,1.79361 -4.49792,2.18176 -5.4827,1.33746 -10.69102,-0.14949 -16.13958,-0.66834 -4.55957,-0.43418 -9.18422,0.0825 -13.75834,-0.35454 -5.58191,-0.5334 -11.06858,-1.92167 -16.66875,-2.31246 -5.36707,-0.37492 -10.75346,-0.29051 -16.13958,-0.2884 -1.71873,8e-4 -4.6863,0.93742 -6.22962,0.0468 -6.90112,-3.98145 -12.43012,-10.4648 -14.80264,-18.03849 -1.84732,-5.89651 -1.93728,-11.75147 -4.70059,-17.4625 -1.52294,-3.14749 -3.20992,-6.27592 -5.75363,-8.72067 -0.78422,-0.75353 -2.14762,-2.13863 -3.3782,-1.6547 -2.2815,0.89799 1.45945,4.66142 2.13308,5.61287 4.50003,6.35582 5.19826,14.22797 6.35158,21.69583 0.53499,3.46366 1.38827,7.15116 2.91756,10.31875 2.26219,4.68524 5.41735,8.58705 6.78974,13.75833 0.39582,1.49172 0.15055,2.98424 0.31459,4.49792 0.17965,1.6592 1.42346,3.62902 1.14141,5.28135 -0.39237,2.30214 -2.76833,4.97311 -3.75073,7.15407 -1.64174,3.64437 -2.68605,7.52554 -4.47516,11.1125 -3.75259,7.52342 -9.15194,15.6591 -7.42368,24.60625 0.6686,3.46101 7.6999,4.40107 8.37671,0.79375"
       style="fill:#ae8b65;stroke:none;stroke-width:0.264583"
       id="path3-5" /></g></svg>
