<?xml version="1.0" encoding="UTF-8" standalone="no"?>
<!-- Created with Inkscape (http://www.inkscape.org/) -->

<svg
   width="122.62365mm"
   height="112.11048mm"
   viewBox="0 0 122.62365 112.11048"
   version="1.1"
   id="svg1"
   xml:space="preserve"
   xmlns="http://www.w3.org/2000/svg"
   xmlns:svg="http://www.w3.org/2000/svg"><defs
     id="defs1" /><g
     id="layer1"
     transform="translate(-329.05091,-137.2671)"><path
       d="m 356.7425,217.69124 c -0.21034,4.60401 -4.0042,7.31811 -3.10594,12.17083 0.69109,3.733 2.37728,7.18873 3.30835,10.84792 0.58393,2.29499 0.45614,5.3803 1.74572,7.38055 1.65391,2.56487 6.17908,0.90461 7.11491,-1.56369 0.79481,-2.09603 -1.37425,-5.52424 -1.75657,-7.66895 -0.93292,-5.23187 0.3683,-14.55129 4.91966,-18.14856 1.20174,-0.94959 4.2799,-0.054 5.76554,-2.7e-4 4.87574,0.17622 9.9531,-0.32729 14.81667,-0.6604 3.46471,-0.23706 6.64739,-1.60126 10.05416,-2.15794 0.88106,-0.14393 3.07975,-0.70485 3.79863,-0.0161 0.99933,0.95726 -0.0736,4.62227 -0.0736,5.90206 0,3.31126 0.44635,6.46483 -0.0564,9.78959 -0.43576,2.88184 -1.71608,5.53376 -1.90526,8.46666 -0.1315,2.03835 0.14843,4.74874 1.98596,6.00313 1.62798,1.11152 6.38625,2.16906 7.35939,-0.19394 0.84005,-2.03967 -2.21112,-3.60336 -1.84732,-6.07377 0.28257,-1.91982 1.26365,-3.28586 1.99284,-5.02708 1.15014,-2.74612 1.86267,-6.13225 3.96028,-8.36719 1.6092,-1.71476 3.82641,-2.41194 5.68749,-3.74782 0.92022,-0.66014 2.18254,-3.68697 2.96677,-3.81767 0.76597,-0.12727 1.27873,0.84878 1.63962,1.35731 1.07633,1.51659 2.34791,2.87258 3.59595,4.24736 2.89772,3.19219 5.81396,6.30078 8.35422,9.80281 2.61911,3.61103 4.8723,8.32035 10.16635,6.85032 2.07936,-0.57758 3.83064,-2.88369 2.44951,-4.99083 -0.95937,-1.46341 -2.9284,-1.87643 -4.0886,-3.19405 -2.30267,-2.61435 -3.82561,-5.53085 -5.64568,-8.45899 -3.43271,-5.52239 -8.29337,-11.44244 -4.7797,-18.25625 0.64902,-1.25863 1.72747,-4.00712 3.08319,-4.56618 3.98833,-1.64439 12.70609,1.651 13.4112,-5.48799 0.21034,-2.13016 -1.89309,-3.50229 -2.61752,-5.29167 -0.78158,-1.93093 -0.41143,-4.16533 -1.34647,-6.08541 -1.78382,-3.66237 -4.17009,-4.55057 -4.17009,-8.99584 -2.20002,0.7501 -3.11785,3.17474 -5.02709,4.43204 -2.05502,1.35334 -4.62809,1.61687 -6.87916,2.5011 -1.70445,0.66966 -3.24856,1.90977 -5.02709,2.32225 -5.50651,1.27715 -11.44005,-0.5334 -16.93333,-0.96758 -2.82363,-0.22304 -5.66658,0.40032 -8.46667,0.13388 -7.53269,-0.71676 -14.96853,-2.10476 -22.48958,-2.82046 -4.93448,-0.46963 -9.86737,-0.045 -14.81667,-0.045 -1.5404,0 -4.12459,0.6686 -5.50756,0.0172 -1.4994,-0.70644 -2.94243,-2.3532 -4.28202,-3.35809 -3.06255,-2.29685 -6.14098,-4.91861 -8.06318,-8.30077 -4.18835,-7.37024 -3.72004,-16.13721 -7.22153,-23.8125 -1.44251,-3.16177 -3.11733,-6.26243 -5.61843,-8.72728 -0.81174,-0.8001 -2.27833,-2.33363 -3.58828,-1.69519 -1.24989,0.60934 -0.0669,2.34024 0.44609,3.01413 2.45215,3.22025 4.42621,6.66909 5.54831,10.58334 2.08756,7.28133 1.9386,15.1204 4.68868,22.225 1.61899,4.18226 4.572,7.70863 6.28041,11.90625 1.19275,2.93052 1.0676,5.44671 1.52268,8.4664 0.23866,1.58406 1.37081,3.41524 1.10728,5.02735 -0.37835,2.31536 -2.44766,4.6863 -3.33454,6.87916 -1.51712,3.75153 -2.57016,7.65387 -4.1693,11.37709 -2.58102,6.00895 -5.5044,10.86881 -6.30767,17.46276 -0.56965,4.6736 -0.0799,12.53834 6.53865,9.77106 0.83052,-0.3474 1.67322,-0.79242 2.32092,-1.42848 2.92074,-2.86782 -0.0534,-4.03754 -1.25545,-6.24152 -0.60774,-1.11443 -0.35877,-3.00805 -0.19526,-4.21799 0.29078,-2.15133 1.73143,-3.86609 2.97154,-5.58006 3.25305,-4.49554 5.97323,-6.81064 10.97491,-8.97202"
       style="fill:#ae8b65;stroke:none;stroke-width:0.264583"
       id="path3-07" /></g></svg>
