<?xml version="1.0" encoding="UTF-8" standalone="no"?>
<!-- Created with Inkscape (http://www.inkscape.org/) -->

<svg
   width="121.91706mm"
   height="112.1062mm"
   viewBox="0 0 121.91706 112.1062"
   version="1.1"
   id="svg1"
   xml:space="preserve"
   xmlns="http://www.w3.org/2000/svg"
   xmlns:svg="http://www.w3.org/2000/svg"><defs
     id="defs1" /><g
     id="layer1"
     transform="translate(-24.46982,-22.30899)"><path
       d="m 42.226483,132.28199 c 1.24275,2.86464 6.12034,2.82549 7.52131,-0.005 0.79851,-1.61316 0.0569,-3.83593 -0.0643,-5.55122 -0.14816,-2.09973 0.1016,-4.87839 0.76888,-6.87917 0.53658,-1.6084 1.60179,-2.59926 2.46486,-3.99256 1.89495,-3.05832 3.35624,-5.79623 6.09018,-8.27405 0.87921,-0.79666 1.922459,-2.35162 3.066779,-2.70801 1.63698,-0.51012 4.32329,0.89006 6.07748,0.93477 4.96094,0.12647 10.43569,0.0442 15.349801,-0.62468 4.25767,-0.5797 8.4156,-2.33521 12.7,-2.52306 1.07209,-0.0468 3.21469,-0.38656 4.129347,0.26167 1.10358,0.78184 1.79917,5.22367 2.32728,6.60717 1.44806,3.79307 4.14205,6.93023 5.34908,10.84792 1.3126,4.26059 -1.37928,13.40485 5.65679,13.74775 0.90408,0.0439 1.86478,0.0476 2.75802,-0.11245 1.27502,-0.22807 3.09192,-1.19248 2.74584,-2.78341 -0.39317,-1.80711 -2.84744,-2.45058 -3.41974,-4.50189 -0.55456,-1.98729 0.61331,-3.84149 0.71385,-5.82083 0.21299,-4.19471 -0.81704,-7.45464 0.37703,-11.64167 3.89731,3.84995 6.6839,10.52407 9.2501,15.34583 1.02843,1.93278 1.75471,4.25927 3.46048,5.73379 2.4466,2.11428 9.35779,2.18546 8.65638,-2.55879 -0.35137,-2.37622 -3.39487,-3.11176 -4.58497,-5.02734 -2.12196,-3.41551 -3.30412,-7.1546 -4.80563,-10.84766 -1.32662,-3.26204 -3.06334,-6.94213 -2.3614,-10.58333 0.56435,-2.926557 2.91041,-7.239257 4.48548,-9.789577 0.60298,-0.97605 0.91996,-2.45745 2.06692,-2.93847 1.13401,-0.47545 2.49291,-0.0145 3.67639,-0.0524 3.68538,-0.11747 7.7515,-0.51779 9.4279,-4.41748 1.13532,-2.64134 -1.54305,-4.1439 -2.35718,-6.35 -0.65352,-1.77059 -0.38629,-3.781419 -1.11257,-5.556249 -0.81386,-1.98834 -2.726,-3.17738 -3.73115,-5.02708 -0.77947,-1.43457 -0.45985,-2.99535 -0.90408,-4.49792 -1.728,1.21814 -2.80141,3.0861 -4.49792,4.33573 -2.18678,1.61105 -4.93342,1.87775 -7.40833,2.82522 -1.45468,0.55695 -2.7231,1.651 -4.23334,2.01903 -5.45835,1.3298 -10.71298,-0.1516 -16.13958,-0.66833 -4.38441,-0.41752 -8.830727,0.0659 -13.229167,-0.35455 -5.75442,-0.5498 -11.42894,-1.91743 -17.197911,-2.31245 -5.54223,-0.37968 -11.10721,-0.2884 -16.668749,-0.2884 -1.74413,0 -4.74186,0.889 -6.23781,-0.15584 -6.75429,-4.71755 -11.80413,-10.42752 -14.26528,-18.365022 -1.7489,-5.641446 -1.65788,-11.414919 -4.18492,-16.933333 -1.40441,-3.067315 -2.99455,-6.21374 -5.36601,-8.654521 -0.7583,-0.780521 -2.22806,-2.256102 -3.46393,-1.72085 -2.03888,0.88265 1.37319,4.476221 1.94125,5.348288 4.13544,6.350529 4.54475,13.641916 5.76263,20.902083 0.66384,3.956314 1.58935,8.009995 3.33586,11.641665 1.43801,2.99006 3.52849,5.58509 4.73393,8.73125 1.30228,3.39884 1.30916,6.349209 1.99575,9.789589 0.34475,1.72746 1.31022,3.50123 1.34673,5.28134 0.0408,2.00158 -1.79308,4.32912 -2.18467,6.36032 -0.90831,4.71223 -1.57347,9.647767 -2.76913,14.287497 -1.07103,4.15555 -2.81992,8.17378 -3.32316,12.43542 -0.52441,4.44262 -0.45641,16.32638 6.27459,15.08125"
       style="fill:#af8b64;stroke:none;stroke-width:0.264583"
       id="path3-84" /></g></svg>
