<?xml version="1.0" encoding="UTF-8" standalone="no"?>
<!-- Created with Inkscape (http://www.inkscape.org/) -->

<svg
   width="120.89976mm"
   height="113.10407mm"
   viewBox="0 0 120.89976 113.10407"
   version="1.1"
   id="svg1"
   xml:space="preserve"
   xmlns="http://www.w3.org/2000/svg"
   xmlns:svg="http://www.w3.org/2000/svg"><defs
     id="defs1" /><g
     id="layer1"
     transform="translate(-470.06286,-499.41782)"><path
       d="m 470.1121,499.41785 c -0.39556,2.44819 1.68645,4.36827 2.89242,6.35 1.31657,2.16376 2.08121,4.70165 2.69161,7.14375 1.6584,6.63575 1.42557,13.53476 3.58933,20.10833 1.34806,4.09602 3.84652,7.44326 5.53032,11.37709 1.67905,3.9235 1.91691,7.31784 2.58022,11.37708 0.29157,1.78461 1.27265,3.5015 1.4351,5.29167 0.14182,1.56898 -0.65061,3.19934 -0.71305,4.78631 -0.18256,4.63761 0.78872,9.23263 -2.10873,13.1699 -1.8288,2.48549 -5.91926,3.44964 -7.0141,6.38651 -2.12064,5.68934 0.37174,12.24227 -0.88689,18.03532 -0.4109,1.89177 -0.80221,4.83341 1.27582,5.8891 1.94787,0.98981 5.52874,-0.0167 6.20237,-2.2307 0.39502,-1.29831 -0.10055,-2.6588 -0.0984,-3.96769 0.007,-3.88356 0.57414,-9.17443 3.93858,-11.64167 -1.456,4.92548 0.0942,13.22361 2.40295,17.72708 1.62745,3.17447 5.37845,4.74081 8.07535,1.55972 0.99774,-1.17687 1.36419,-3.61765 0.25479,-4.83261 -0.82523,-0.90382 -2.09523,-1.18851 -2.72177,-2.295 -2.58498,-4.56406 -1.20226,-13.3567 0.86889,-17.95621 0.79164,-1.75789 3.36762,-2.07513 3.29063,-4.25715 l 0.79375,-1.5875 c 2.98291,0.85937 5.58932,2.34686 8.73125,2.79718 6.10923,0.87524 13.55063,-0.0352 19.65457,-0.78767 4.3315,-0.53393 10.95005,-4.27857 15.2363,-1.74148 1.41631,0.83846 2.27356,2.93237 3.51869,4.06717 1.86029,1.69571 6.33624,3.10965 7.45623,5.22499 2.92205,5.51868 2.76251,12.51612 5.47449,18.22106 1.38483,2.91254 4.69821,4.82018 7.92533,3.69941 1.58644,-0.55087 3.04403,-2.52175 2.3786,-4.22831 -0.61833,-1.58591 -2.25451,-2.03174 -3.25093,-3.26152 -1.55125,-1.91452 -2.295,-5.45491 -2.30161,-7.85124 h 0.26458 c 1.02553,5.68298 7.18106,8.71616 11.56785,4.28413 1.07315,-1.08426 1.07235,-3.14166 -0.71993,-3.2258 -1.04643,-1.19936 -2.58923,-0.91784 -3.59067,-2.64689 -1.30439,-2.25187 -0.78845,-4.96094 -2.50586,-6.97998 -1.18719,-1.39541 -4.79559,-3.79915 -4.85511,-5.72822 -0.0442,-1.43775 2.55323,-2.69426 3.37952,-3.69623 2.74399,-3.32635 2.90009,-9.33292 6.32195,-12.00997 1.025,-0.80169 2.94164,-0.3982 4.16057,-0.4281 3.70867,-0.0908 8.19203,-0.62097 9.56337,-4.75853 0.8247,-2.4884 -1.72641,-4.00208 -2.49264,-6.08541 -0.65167,-1.77139 -0.38709,-3.7809 -1.11257,-5.55625 -0.82365,-2.01481 -2.75088,-3.1414 -3.73486,-5.02735 -0.75565,-1.44807 -0.45509,-2.99138 -0.90038,-4.49765 -1.89177,1.20835 -2.90248,3.28321 -4.7625,4.5376 -2.05872,1.388 -4.61989,1.58089 -6.87917,2.46433 -1.54305,0.60325 -2.90856,1.76768 -4.50188,2.19207 -5.41919,1.44436 -10.74393,-0.16907 -16.13561,-0.68236 -4.64502,-0.44238 -9.36439,0.0892 -14.02291,-0.35454 -5.66526,-0.53949 -11.23924,-2.07619 -16.93334,-2.32595 -5.20356,-0.22807 -10.39125,-0.27517 -15.61042,-0.2749 -2.04046,0 -4.64899,0.78528 -6.61458,0.10874 -1.94919,-0.67072 -4.08252,-2.94375 -5.55625,-4.3524 -4.50982,-4.31085 -7.44088,-9.58823 -9.02653,-15.60009 -1.41472,-5.36364 -1.56897,-10.59762 -3.67347,-15.875 -1.49278,-3.74306 -4.0423,-10.01184 -8.73125,-10.05417"
       style="fill:#af8b64;stroke:none;stroke-width:0.264583"
       id="path3-7" /></g></svg>
