<?xml version="1.0" encoding="UTF-8" standalone="no"?>
<!-- Created with Inkscape (http://www.inkscape.org/) -->

<svg
   width="122.10789mm"
   height="112.74395mm"
   viewBox="0 0 122.10789 112.74395"
   version="1.1"
   id="svg1"
   xml:space="preserve"
   xmlns="http://www.w3.org/2000/svg"
   xmlns:svg="http://www.w3.org/2000/svg"><defs
     id="defs1" /><g
     id="layer1"
     transform="translate(-304.16122,-351.0069)"><path
       d="m 323.68337,443.2239 h 0.26458 c 0.13838,1.69466 0.38312,5.06068 1.85208,6.08542 -0.44317,2.75431 1.4949,6.18463 1.855,8.9998 0.16113,1.26127 0.11535,2.89375 0.92683,3.937 1.81425,2.33309 5.70601,1.02235 6.92335,-1.31895 0.7964,-1.53141 -0.27543,-3.50679 -0.70908,-5.00327 -0.78872,-2.72098 -1.32133,-5.63113 -1.0377,-8.46667 0.60908,-6.0833 5.56763,-9.81472 8.97494,-14.2875 2.76013,2.22144 7.85415,1.30519 11.1125,1.08215 4.41536,-0.30242 8.85163,-0.10901 13.23313,-0.8427 4.09919,-0.68633 7.65757,-2.09153 11.90228,-2.09153 0,4.24074 0.86466,8.25685 1.04801,12.43542 0.18257,4.16533 -0.49291,8.3095 -0.39846,12.43541 0.0619,2.70193 0.7112,6.10923 3.58378,7.17286 1.51051,0.55933 4.75218,0.59822 6.05658,-0.42969 1.66158,-1.30916 0.93107,-3.31681 -1.02949,-3.56817 -2.06375,-4.51644 -0.34423,-13.17228 2.84718,-17.1741 1.64862,-2.06746 4.31641,-3.73221 6.41323,-5.31548 1.55893,3.75523 5.51577,6.5741 6.6429,10.47115 1.06653,3.68697 -0.93398,8.0555 1.24566,11.4853 1.57294,2.4757 7.42658,4.88659 8.4111,0.53207 0.48366,-2.13942 -1.38377,-3.59754 -1.7227,-5.55519 -0.57732,-3.33454 0.49741,-6.83762 -0.49424,-10.05416 -1.47797,-4.79399 -5.53218,-9.12786 -4.65217,-14.50711 0.4691,-2.86808 2.45242,-6.57728 3.94017,-9.04081 0.56118,-0.92869 0.89085,-2.31352 1.98967,-2.75087 4.5675,-1.81743 10.62302,1.59781 13.15508,-4.65746 1.07236,-2.64875 -1.58115,-4.1455 -2.39474,-6.35 -0.65352,-1.7706 -0.38709,-3.78116 -1.11257,-5.55625 -0.82101,-2.00872 -2.72177,-3.17104 -3.73116,-5.02709 -0.77973,-1.43404 -0.46011,-2.99561 -0.90408,-4.49791 -1.93675,1.14326 -2.89639,3.27924 -4.7625,4.5376 -2.05872,1.388 -4.61989,1.58089 -6.87917,2.46433 -1.54305,0.60325 -2.90883,1.76768 -4.50188,2.19207 -5.43243,1.4478 -10.73388,-0.16801 -16.13562,-0.68236 -4.64502,-0.44238 -9.36439,0.0892 -14.02291,-0.35454 -5.58403,-0.53181 -11.06805,-1.92908 -16.66875,-2.31246 -5.45597,-0.37385 -10.92914,-0.29713 -16.40417,-0.28839 -2.20424,0.003 -4.69503,0.89296 -6.61458,-0.52256 -3.95102,-2.91332 -8.21346,-6.0489 -10.7651,-10.34917 -4.55428,-7.67424 -3.89282,-16.80978 -7.57317,-24.84702 -1.38801,-3.03133 -3.02948,-6.01372 -5.36231,-8.42063 -0.72284,-0.74613 -2.07275,-2.08518 -3.24803,-1.7108 -2.27832,0.72602 1.12792,4.48575 1.73832,5.36893 4.58364,6.63045 4.73948,14.58965 6.21241,22.225 0.69506,3.60309 1.44965,7.27128 3.09721,10.58333 1.70498,3.42688 3.96135,6.39471 5.30331,10.05417 1.03982,2.8358 0.95065,5.32183 1.45971,8.20208 0.28787,1.62877 1.25254,3.38402 1.25121,5.02708 -10e-4,1.23878 -0.86333,2.38337 -1.27449,3.51499 -0.73396,2.02115 -1.24672,4.1865 -1.75525,6.2746 -1.06415,4.36985 -1.53114,8.87491 -2.70695,13.22916 -1.53194,5.67188 -3.56711,10.68652 -3.82905,16.66875 -0.11324,2.58921 -0.0246,7.05379 2.1627,8.85984 2.57572,2.12672 7.17974,-0.2712 7.53269,-3.30359 0.25056,-2.15159 -1.97908,-2.87602 -2.4511,-4.76276 -0.89958,-3.59516 0.82629,-6.61115 2.00581,-9.78932"
       style="fill:#af8b64;stroke:none;stroke-width:0.264583"
       id="path3-8" /></g></svg>
