<?xml version="1.0" encoding="UTF-8" standalone="no"?>
<!-- Created with Inkscape (http://www.inkscape.org/) -->

<svg
   width="47.77972mm"
   height="50.965042mm"
   viewBox="0 0 47.77972 50.965042"
   version="1.1"
   id="svg1"
   xml:space="preserve"
   xmlns="http://www.w3.org/2000/svg"
   xmlns:svg="http://www.w3.org/2000/svg"><defs
     id="defs1" /><g
     id="layer1"
     transform="translate(-148.37797,-151.54246)"><path
       style="fill:#f2bc88;fill-opacity:1;stroke-width:0.691426"
       d="m 164.30454,200.91484 v -1.59266 h -3.18532 -3.18531 v -1.59265 -1.59266 h -1.59266 -1.59265 v -1.59266 -1.59266 h -1.59266 -1.59266 v -3.18532 -3.1853 h -1.59266 -1.59265 v -7.9633 -7.96328 h 1.59265 1.59266 v -3.18532 -3.18531 h 1.59266 1.59266 v -1.59266 -1.59266 h 1.59265 1.59266 v -1.59265 -1.59266 h 1.59266 1.59265 v -1.59266 -1.59265 h 3.18532 3.18532 v 3.18531 3.18531 h -1.59266 -1.59266 v 1.59266 1.59266 h -1.59266 -1.59266 v 1.59266 1.59265 h -1.59265 -1.59266 v 3.18532 3.18532 h -1.59266 -1.59265 v 4.77796 4.77798 h 1.59265 1.59266 v 3.18532 3.1853 h 1.59266 1.59265 v 1.59266 1.59266 h 1.59266 1.59266 v 1.59266 1.59266 h 7.96328 7.9633 v -1.59266 -1.59266 h 1.59265 1.59265 v -1.59266 -1.59266 h 1.59266 1.59266 v -3.1853 -3.18532 h 1.59266 1.59266 v -4.77798 -4.77796 h -1.59266 -1.59266 v -3.18532 -3.18532 h -1.59266 -1.59266 v -1.59265 -1.59266 h -1.59265 -1.59265 v -1.59266 -1.59266 h -1.59266 -1.59266 v -3.18531 -3.18531 h 3.18532 3.1853 v 1.59265 1.59266 h 1.59266 1.59266 v 1.59266 1.59265 h 1.59266 1.59266 v 1.59266 1.59266 h 1.59266 1.59265 v 3.18531 3.18532 h 1.59266 1.59266 v 7.96328 7.9633 h -1.59266 -1.59266 v 3.1853 3.18532 h -1.59265 -1.59266 v 1.59266 1.59266 h -1.59266 -1.59266 v 1.59266 1.59265 h -3.18532 -3.1853 v 1.59266 1.59266 h -7.9633 -7.96328 z m 6.37063,-31.85315 v -17.51923 h 1.59265 1.59266 v 17.51923 17.51924 h -1.59266 -1.59265 z"
       id="path1" /></g></svg>
